<svg width="47" height="48" viewBox="0 0 47 48" fill="none" xmlns="http://www.w3.org/2000/svg">
<path fill-rule="evenodd" clip-rule="evenodd" d="M16.9675 27.5766C22.7461 27.5766 27.4306 22.8921 27.4306 17.1135C27.4306 11.3348 22.7461 6.6503 16.9675 6.6503C11.1888 6.6503 6.5043 11.3348 6.5043 17.1135C6.5043 22.8921 11.1888 27.5766 16.9675 27.5766ZM16.9675 30.9701C24.6203 30.9701 30.8241 24.7663 30.8241 17.1135C30.8241 9.46066 24.6203 3.25684 16.9675 3.25684C9.31467 3.25684 3.11084 9.46066 3.11084 17.1135C3.11084 24.7663 9.31467 30.9701 16.9675 30.9701Z" fill="url(#paint0_linear_104_336)"/>
<path d="M29.9808 36.6409C28.5724 35.2326 28.5724 32.9491 29.9808 31.5407C31.3892 30.1323 33.6726 30.1323 35.081 31.5407L40.5391 36.9988C41.9475 38.4072 41.9475 40.6906 40.5391 42.099C39.1307 43.5074 36.8473 43.5074 35.4389 42.099L29.9808 36.6409Z" fill="url(#paint1_linear_104_336)"/>
<path d="M23.4741 27.3569L25.7966 25.0345L33.2285 32.4664L30.9061 34.7889L23.4741 27.3569Z" fill="url(#paint2_linear_104_336)"/>
<rect x="33.0864" y="3.53955" width="2.59812" height="1.48464" fill="url(#paint3_linear_104_336)"/>
<rect x="35.6313" y="10.6091" width="2.59812" height="1.48464" fill="url(#paint4_linear_104_336)"/>
<rect x="35.6313" y="16.8306" width="2.59812" height="1.48464" fill="url(#paint5_linear_104_336)"/>
<rect x="33.0864" y="5.58081" width="2.59812" height="1.48464" fill="url(#paint6_linear_104_336)"/>
<rect x="35.6313" y="12.6506" width="2.59812" height="1.48464" fill="url(#paint7_linear_104_336)"/>
<rect x="35.6313" y="18.8721" width="2.59812" height="1.48464" fill="url(#paint8_linear_104_336)"/>
<rect x="33.0864" y="7.62207" width="2.59812" height="1.48464" fill="url(#paint9_linear_104_336)"/>
<rect x="35.6313" y="14.6921" width="2.59812" height="1.48464" fill="url(#paint10_linear_104_336)"/>
<rect x="36.6123" y="3.53955" width="2.59812" height="1.48464" fill="url(#paint11_linear_104_336)"/>
<rect x="39.1572" y="10.6091" width="2.59812" height="1.48464" fill="url(#paint12_linear_104_336)"/>
<rect x="39.1572" y="16.8306" width="2.59812" height="1.48464" fill="url(#paint13_linear_104_336)"/>
<rect x="36.6123" y="5.58081" width="2.59812" height="1.48464" fill="url(#paint14_linear_104_336)"/>
<rect x="39.1572" y="12.6506" width="2.59812" height="1.48464" fill="url(#paint15_linear_104_336)"/>
<rect x="39.1572" y="18.8721" width="2.59812" height="1.48464" fill="url(#paint16_linear_104_336)"/>
<rect x="36.6123" y="7.62207" width="2.59812" height="1.48464" fill="url(#paint17_linear_104_336)"/>
<rect x="39.1572" y="14.6921" width="2.59812" height="1.48464" fill="url(#paint18_linear_104_336)"/>
<rect x="2.82764" y="30.6873" width="2.59812" height="1.48464" fill="url(#paint19_linear_104_336)"/>
<rect x="5.37256" y="37.7571" width="2.59812" height="1.48464" fill="url(#paint20_linear_104_336)"/>
<rect x="2.82764" y="32.7288" width="2.59812" height="1.48464" fill="url(#paint21_linear_104_336)"/>
<rect x="5.37256" y="39.7983" width="2.59812" height="1.48464" fill="url(#paint22_linear_104_336)"/>
<rect x="2.82764" y="34.77" width="2.59812" height="1.48464" fill="url(#paint23_linear_104_336)"/>
<rect x="5.37256" y="41.8398" width="2.59812" height="1.48464" fill="url(#paint24_linear_104_336)"/>
<rect x="6.354" y="30.6873" width="2.59812" height="1.48464" fill="url(#paint25_linear_104_336)"/>
<rect x="8.89893" y="37.7571" width="2.59812" height="1.48464" fill="url(#paint26_linear_104_336)"/>
<rect x="6.354" y="32.7288" width="2.59812" height="1.48464" fill="url(#paint27_linear_104_336)"/>
<rect x="8.89893" y="39.7983" width="2.59812" height="1.48464" fill="url(#paint28_linear_104_336)"/>
<rect x="6.354" y="34.77" width="2.59812" height="1.48464" fill="url(#paint29_linear_104_336)"/>
<rect x="8.89893" y="41.8398" width="2.59812" height="1.48464" fill="url(#paint30_linear_104_336)"/>
<defs>
<linearGradient id="paint0_linear_104_336" x1="16.9675" y1="3.25684" x2="16.9675" y2="30.9701" gradientUnits="userSpaceOnUse">
<stop stop-color="#62B8D2"/>
<stop offset="1" stop-color="#3CB4F4"/>
</linearGradient>
<linearGradient id="paint1_linear_104_336" x1="29.9808" y1="31.5407" x2="40.5391" y2="42.099" gradientUnits="userSpaceOnUse">
<stop stop-color="#62B8D2"/>
<stop offset="1" stop-color="#3CB4F4"/>
</linearGradient>
<linearGradient id="paint2_linear_104_336" x1="24.6354" y1="26.1957" x2="32.0673" y2="33.6276" gradientUnits="userSpaceOnUse">
<stop stop-color="#62B8D2"/>
<stop offset="1" stop-color="#3CB4F4"/>
</linearGradient>
<linearGradient id="paint3_linear_104_336" x1="34.3855" y1="3.53955" x2="34.3855" y2="5.02419" gradientUnits="userSpaceOnUse">
<stop stop-color="#62B8D2"/>
<stop offset="1" stop-color="#3CB4F4"/>
</linearGradient>
<linearGradient id="paint4_linear_104_336" x1="36.9304" y1="10.6091" x2="36.9304" y2="12.0938" gradientUnits="userSpaceOnUse">
<stop stop-color="#62B8D2"/>
<stop offset="1" stop-color="#3CB4F4"/>
</linearGradient>
<linearGradient id="paint5_linear_104_336" x1="36.9304" y1="16.8306" x2="36.9304" y2="18.3152" gradientUnits="userSpaceOnUse">
<stop stop-color="#62B8D2"/>
<stop offset="1" stop-color="#3CB4F4"/>
</linearGradient>
<linearGradient id="paint6_linear_104_336" x1="34.3855" y1="5.58081" x2="34.3855" y2="7.06545" gradientUnits="userSpaceOnUse">
<stop stop-color="#62B8D2"/>
<stop offset="1" stop-color="#3CB4F4"/>
</linearGradient>
<linearGradient id="paint7_linear_104_336" x1="36.9304" y1="12.6506" x2="36.9304" y2="14.1353" gradientUnits="userSpaceOnUse">
<stop stop-color="#62B8D2"/>
<stop offset="1" stop-color="#3CB4F4"/>
</linearGradient>
<linearGradient id="paint8_linear_104_336" x1="36.9304" y1="18.8721" x2="36.9304" y2="20.3567" gradientUnits="userSpaceOnUse">
<stop stop-color="#62B8D2"/>
<stop offset="1" stop-color="#3CB4F4"/>
</linearGradient>
<linearGradient id="paint9_linear_104_336" x1="34.3855" y1="7.62207" x2="34.3855" y2="9.10671" gradientUnits="userSpaceOnUse">
<stop stop-color="#62B8D2"/>
<stop offset="1" stop-color="#3CB4F4"/>
</linearGradient>
<linearGradient id="paint10_linear_104_336" x1="36.9304" y1="14.6921" x2="36.9304" y2="16.1768" gradientUnits="userSpaceOnUse">
<stop stop-color="#62B8D2"/>
<stop offset="1" stop-color="#3CB4F4"/>
</linearGradient>
<linearGradient id="paint11_linear_104_336" x1="37.9114" y1="3.53955" x2="37.9114" y2="5.02419" gradientUnits="userSpaceOnUse">
<stop stop-color="#62B8D2"/>
<stop offset="1" stop-color="#3CB4F4"/>
</linearGradient>
<linearGradient id="paint12_linear_104_336" x1="40.4563" y1="10.6091" x2="40.4563" y2="12.0938" gradientUnits="userSpaceOnUse">
<stop stop-color="#62B8D2"/>
<stop offset="1" stop-color="#3CB4F4"/>
</linearGradient>
<linearGradient id="paint13_linear_104_336" x1="40.4563" y1="16.8306" x2="40.4563" y2="18.3152" gradientUnits="userSpaceOnUse">
<stop stop-color="#62B8D2"/>
<stop offset="1" stop-color="#3CB4F4"/>
</linearGradient>
<linearGradient id="paint14_linear_104_336" x1="37.9114" y1="5.58081" x2="37.9114" y2="7.06545" gradientUnits="userSpaceOnUse">
<stop stop-color="#62B8D2"/>
<stop offset="1" stop-color="#3CB4F4"/>
</linearGradient>
<linearGradient id="paint15_linear_104_336" x1="40.4563" y1="12.6506" x2="40.4563" y2="14.1353" gradientUnits="userSpaceOnUse">
<stop stop-color="#62B8D2"/>
<stop offset="1" stop-color="#3CB4F4"/>
</linearGradient>
<linearGradient id="paint16_linear_104_336" x1="40.4563" y1="18.8721" x2="40.4563" y2="20.3567" gradientUnits="userSpaceOnUse">
<stop stop-color="#62B8D2"/>
<stop offset="1" stop-color="#3CB4F4"/>
</linearGradient>
<linearGradient id="paint17_linear_104_336" x1="37.9114" y1="7.62207" x2="37.9114" y2="9.10671" gradientUnits="userSpaceOnUse">
<stop stop-color="#62B8D2"/>
<stop offset="1" stop-color="#3CB4F4"/>
</linearGradient>
<linearGradient id="paint18_linear_104_336" x1="40.4563" y1="14.6921" x2="40.4563" y2="16.1768" gradientUnits="userSpaceOnUse">
<stop stop-color="#62B8D2"/>
<stop offset="1" stop-color="#3CB4F4"/>
</linearGradient>
<linearGradient id="paint19_linear_104_336" x1="4.1267" y1="30.6873" x2="4.1267" y2="32.1719" gradientUnits="userSpaceOnUse">
<stop stop-color="#62B8D2"/>
<stop offset="1" stop-color="#3CB4F4"/>
</linearGradient>
<linearGradient id="paint20_linear_104_336" x1="6.67162" y1="37.7571" x2="6.67162" y2="39.2417" gradientUnits="userSpaceOnUse">
<stop stop-color="#62B8D2"/>
<stop offset="1" stop-color="#3CB4F4"/>
</linearGradient>
<linearGradient id="paint21_linear_104_336" x1="4.1267" y1="32.7288" x2="4.1267" y2="34.2134" gradientUnits="userSpaceOnUse">
<stop stop-color="#62B8D2"/>
<stop offset="1" stop-color="#3CB4F4"/>
</linearGradient>
<linearGradient id="paint22_linear_104_336" x1="6.67162" y1="39.7983" x2="6.67162" y2="41.283" gradientUnits="userSpaceOnUse">
<stop stop-color="#62B8D2"/>
<stop offset="1" stop-color="#3CB4F4"/>
</linearGradient>
<linearGradient id="paint23_linear_104_336" x1="4.1267" y1="34.77" x2="4.1267" y2="36.2547" gradientUnits="userSpaceOnUse">
<stop stop-color="#62B8D2"/>
<stop offset="1" stop-color="#3CB4F4"/>
</linearGradient>
<linearGradient id="paint24_linear_104_336" x1="6.67162" y1="41.8398" x2="6.67162" y2="43.3245" gradientUnits="userSpaceOnUse">
<stop stop-color="#62B8D2"/>
<stop offset="1" stop-color="#3CB4F4"/>
</linearGradient>
<linearGradient id="paint25_linear_104_336" x1="7.65306" y1="30.6873" x2="7.65306" y2="32.1719" gradientUnits="userSpaceOnUse">
<stop stop-color="#62B8D2"/>
<stop offset="1" stop-color="#3CB4F4"/>
</linearGradient>
<linearGradient id="paint26_linear_104_336" x1="10.198" y1="37.7571" x2="10.198" y2="39.2417" gradientUnits="userSpaceOnUse">
<stop stop-color="#62B8D2"/>
<stop offset="1" stop-color="#3CB4F4"/>
</linearGradient>
<linearGradient id="paint27_linear_104_336" x1="7.65306" y1="32.7288" x2="7.65306" y2="34.2134" gradientUnits="userSpaceOnUse">
<stop stop-color="#62B8D2"/>
<stop offset="1" stop-color="#3CB4F4"/>
</linearGradient>
<linearGradient id="paint28_linear_104_336" x1="10.198" y1="39.7983" x2="10.198" y2="41.283" gradientUnits="userSpaceOnUse">
<stop stop-color="#62B8D2"/>
<stop offset="1" stop-color="#3CB4F4"/>
</linearGradient>
<linearGradient id="paint29_linear_104_336" x1="7.65306" y1="34.77" x2="7.65306" y2="36.2547" gradientUnits="userSpaceOnUse">
<stop stop-color="#62B8D2"/>
<stop offset="1" stop-color="#3CB4F4"/>
</linearGradient>
<linearGradient id="paint30_linear_104_336" x1="10.198" y1="41.8398" x2="10.198" y2="43.3245" gradientUnits="userSpaceOnUse">
<stop stop-color="#62B8D2"/>
<stop offset="1" stop-color="#3CB4F4"/>
</linearGradient>
</defs>
</svg>
