<svg width="40" height="47" viewBox="0 0 40 47" fill="none" xmlns="http://www.w3.org/2000/svg">
<path fill-rule="evenodd" clip-rule="evenodd" d="M36.6131 33.1964L36.6131 14.2456L20.2001 4.76902L3.78701 14.2456L3.78702 33.1964L20.2001 42.6731L36.6131 33.1964ZM20.2001 46.5916L40.0066 35.1556L40.0066 12.2865L20.2001 0.850524L0.393553 12.2865L0.393554 35.1556L20.2001 46.5916Z" fill="url(#paint0_linear_104_319)"/>
<path d="M15.3227 13.1838V27.6689H12.2109V16.723L8.85059 17.747V15.3411L15.0145 13.1838H15.3227Z" fill="url(#paint1_linear_104_319)"/>
<path d="M29.7681 19.1389V21.7138C29.7681 22.7743 29.6488 23.6922 29.4102 24.4677C29.1782 25.2431 28.8402 25.8827 28.3961 26.3865C27.9587 26.8902 27.4351 27.2646 26.8253 27.5099C26.2222 27.7485 25.5528 27.8678 24.8171 27.8678C24.2272 27.8678 23.6771 27.7916 23.1667 27.6391C22.6564 27.4867 22.1958 27.2514 21.7848 26.9332C21.3805 26.6085 21.0326 26.2042 20.741 25.7204C20.4493 25.2365 20.224 24.6599 20.0649 23.9905C19.9125 23.3211 19.8363 22.5622 19.8363 21.7138V19.1389C19.8363 18.0652 19.9522 17.1439 20.1842 16.3751C20.4228 15.6062 20.7642 14.97 21.2082 14.4663C21.6523 13.9625 22.1759 13.5914 22.779 13.3528C23.3888 13.1142 24.0615 12.9949 24.7972 12.9949C25.3871 12.9949 25.9339 13.0711 26.4376 13.2235C26.9479 13.376 27.4086 13.6113 27.8195 13.9294C28.2304 14.2475 28.5784 14.6485 28.8634 15.1324C29.155 15.6162 29.377 16.1928 29.5295 16.8622C29.6886 17.525 29.7681 18.2839 29.7681 19.1389ZM26.6663 22.1015V18.7313C26.6663 18.2342 26.6364 17.8034 26.5768 17.4388C26.5238 17.0677 26.4442 16.7529 26.3382 16.4944C26.2388 16.2359 26.1128 16.0271 25.9604 15.868C25.8079 15.709 25.6323 15.593 25.4335 15.5201C25.2413 15.4406 25.0292 15.4008 24.7972 15.4008C24.5056 15.4008 24.2438 15.4604 24.0118 15.5797C23.7798 15.699 23.5843 15.8879 23.4252 16.1464C23.2662 16.3983 23.1436 16.7396 23.0574 17.1704C22.9779 17.5946 22.9381 18.1149 22.9381 18.7313V22.1015C22.9381 22.5986 22.9646 23.0328 23.0176 23.4039C23.0773 23.7751 23.1568 24.0932 23.2562 24.3583C23.3623 24.6168 23.4915 24.8289 23.644 24.9946C23.7964 25.1537 23.972 25.2697 24.1709 25.3426C24.3697 25.4155 24.5851 25.4519 24.8171 25.4519C25.1087 25.4519 25.3672 25.3956 25.5925 25.2829C25.8179 25.1636 26.0101 24.9747 26.1692 24.7162C26.3349 24.4511 26.4575 24.1032 26.537 23.6723C26.6232 23.2415 26.6663 22.7179 26.6663 22.1015Z" fill="url(#paint2_linear_104_319)"/>
<path d="M14.6789 31.8089V35.5868H13.3003V30.8059H14.5949L14.6789 31.8089ZM14.5021 33.0284L14.1531 33.0372C14.1531 32.7014 14.1928 32.3936 14.2724 32.1138C14.3549 31.831 14.4742 31.585 14.6303 31.3759C14.7864 31.1667 14.9793 31.0047 15.2091 30.8898C15.4418 30.7749 15.7099 30.7175 16.0133 30.7175C16.2254 30.7175 16.4183 30.7499 16.5921 30.8147C16.7659 30.8766 16.9147 30.9752 17.0384 31.1107C17.1651 31.2433 17.2623 31.4171 17.33 31.6321C17.3978 31.8442 17.4317 32.099 17.4317 32.3966V35.5868H16.0531V32.5645C16.0531 32.3524 16.0266 32.1918 15.9735 32.0828C15.9235 31.9709 15.8498 31.8943 15.7526 31.8531C15.6554 31.8118 15.539 31.7912 15.4035 31.7912C15.2562 31.7912 15.1252 31.8236 15.0103 31.8884C14.8983 31.9503 14.8041 32.0372 14.7275 32.1491C14.6509 32.261 14.5935 32.3921 14.5552 32.5424C14.5198 32.6926 14.5021 32.8546 14.5021 33.0284ZM17.2903 32.9577L16.8528 32.9931C16.8528 32.669 16.8911 32.3686 16.9677 32.0917C17.0443 31.8148 17.1592 31.5747 17.3124 31.3714C17.4655 31.1652 17.6555 31.0047 17.8823 30.8898C18.1121 30.7749 18.3787 30.7175 18.6821 30.7175C18.906 30.7175 19.1092 30.7499 19.2919 30.8147C19.4775 30.8795 19.6365 30.9841 19.7691 31.1284C19.9046 31.2728 20.0092 31.4628 20.0828 31.6984C20.1564 31.9311 20.1933 32.2169 20.1933 32.5556V35.5868H18.8058V32.5556C18.8058 32.3465 18.7793 32.1874 18.7263 32.0784C18.6762 31.9694 18.6026 31.8943 18.5054 31.8531C18.4111 31.8118 18.2977 31.7912 18.1651 31.7912C18.0179 31.7912 17.8897 31.8221 17.7807 31.884C17.6717 31.9429 17.5804 32.0254 17.5068 32.1314C17.4331 32.2345 17.3786 32.3568 17.3433 32.4982C17.3079 32.6396 17.2903 32.7927 17.2903 32.9577Z" fill="url(#paint3_linear_104_319)"/>
<path d="M22.5705 30.8059V35.5868H21.1874V30.8059H22.5705ZM21.1035 29.5687C21.1035 29.3684 21.1742 29.2049 21.3156 29.0782C21.457 28.9486 21.6426 28.8838 21.8723 28.8838C22.1021 28.8838 22.2877 28.9486 22.4291 29.0782C22.5734 29.2049 22.6456 29.3684 22.6456 29.5687C22.6456 29.766 22.5734 29.9295 22.4291 30.0591C22.2877 30.1858 22.1021 30.2491 21.8723 30.2491C21.6426 30.2491 21.457 30.1858 21.3156 30.0591C21.1742 29.9295 21.1035 29.766 21.1035 29.5687Z" fill="url(#paint4_linear_104_319)"/>
<path d="M24.9167 31.8266V35.5868H23.5337V30.8059H24.8328L24.9167 31.8266ZM24.7356 33.0284L24.3909 33.0372C24.3909 32.6779 24.4351 32.3553 24.5235 32.0696C24.6118 31.7838 24.737 31.5408 24.899 31.3405C25.064 31.1373 25.2599 30.9826 25.4867 30.8766C25.7165 30.7705 25.9698 30.7175 26.2467 30.7175C26.4706 30.7175 26.6753 30.7499 26.8609 30.8147C27.0465 30.8795 27.2055 30.9841 27.3381 31.1284C27.4736 31.2698 27.5767 31.4583 27.6474 31.694C27.7181 31.9267 27.7534 32.2139 27.7534 32.5556V35.5868H26.366V32.5512C26.366 32.3509 26.338 32.1962 26.2821 32.0873C26.2261 31.9783 26.1436 31.9017 26.0346 31.8575C25.9286 31.8133 25.799 31.7912 25.6458 31.7912C25.4838 31.7912 25.3453 31.8236 25.2304 31.8884C25.1155 31.9503 25.0213 32.0372 24.9476 32.1491C24.874 32.261 24.8195 32.3921 24.7842 32.5424C24.7518 32.6926 24.7356 32.8546 24.7356 33.0284Z" fill="url(#paint5_linear_104_319)"/>
<defs>
<linearGradient id="paint0_linear_104_319" x1="0.393554" y1="23.721" x2="40.0066" y2="23.721" gradientUnits="userSpaceOnUse">
<stop stop-color="#3AB3F4"/>
<stop offset="1" stop-color="#63B8D0"/>
</linearGradient>
<linearGradient id="paint1_linear_104_319" x1="19.3093" y1="12.9949" x2="19.3093" y2="27.8678" gradientUnits="userSpaceOnUse">
<stop stop-color="#3AB3F4"/>
<stop offset="1" stop-color="#63B8D0"/>
</linearGradient>
<linearGradient id="paint2_linear_104_319" x1="19.3093" y1="12.9949" x2="19.3093" y2="27.8678" gradientUnits="userSpaceOnUse">
<stop stop-color="#3AB3F4"/>
<stop offset="1" stop-color="#63B8D0"/>
</linearGradient>
<linearGradient id="paint3_linear_104_319" x1="20.5269" y1="28.8838" x2="20.5269" y2="35.5868" gradientUnits="userSpaceOnUse">
<stop stop-color="#3AB3F4"/>
<stop offset="1" stop-color="#63B8D0"/>
</linearGradient>
<linearGradient id="paint4_linear_104_319" x1="20.5269" y1="28.8838" x2="20.5269" y2="35.5868" gradientUnits="userSpaceOnUse">
<stop stop-color="#3AB3F4"/>
<stop offset="1" stop-color="#63B8D0"/>
</linearGradient>
<linearGradient id="paint5_linear_104_319" x1="20.5269" y1="28.8838" x2="20.5269" y2="35.5868" gradientUnits="userSpaceOnUse">
<stop stop-color="#3AB3F4"/>
<stop offset="1" stop-color="#63B8D0"/>
</linearGradient>
</defs>
</svg>
