<svg width="44" height="44" viewBox="0 0 44 44" fill="none" xmlns="http://www.w3.org/2000/svg">
<path fill-rule="evenodd" clip-rule="evenodd" d="M22.0473 9.32315C14.7069 9.32315 8.75625 15.2738 8.75625 22.6142C8.75625 29.9547 14.7069 35.9053 22.0473 35.9053C29.3878 35.9053 35.3384 29.9547 35.3384 22.6142C35.3384 15.2738 29.3878 9.32315 22.0473 9.32315ZM5.36279 22.6142C5.36279 13.3996 12.8327 5.92969 22.0473 5.92969C31.2619 5.92969 38.7318 13.3996 38.7318 22.6142C38.7318 31.8288 31.2619 39.2987 22.0473 39.2987C12.8327 39.2987 5.36279 31.8288 5.36279 22.6142Z" fill="url(#paint0_linear_104_327)"/>
<path fill-rule="evenodd" clip-rule="evenodd" d="M22.047 19.7863C20.4852 19.7863 19.2191 21.0524 19.2191 22.6142C19.2191 24.176 20.4852 25.4421 22.047 25.4421C23.6088 25.4421 24.8749 24.176 24.8749 22.6142C24.8749 21.0524 23.6088 19.7863 22.047 19.7863ZM15.8257 22.6142C15.8257 19.1782 18.6111 16.3928 22.047 16.3928C25.483 16.3928 28.2684 19.1782 28.2684 22.6142C28.2684 26.0501 25.483 28.8355 22.047 28.8355C18.6111 28.8355 15.8257 26.0501 15.8257 22.6142Z" fill="url(#paint1_linear_104_327)"/>
<path fill-rule="evenodd" clip-rule="evenodd" d="M43.9632 24.0282L31.5205 24.0282L31.5205 20.6348L43.9632 20.6348L43.9632 24.0282Z" fill="url(#paint2_linear_104_327)"/>
<path fill-rule="evenodd" clip-rule="evenodd" d="M12.5735 24.0282L0.13086 24.0282L0.130859 20.6348L12.5735 20.6348L12.5735 24.0282Z" fill="url(#paint3_linear_104_327)"/>
<path fill-rule="evenodd" clip-rule="evenodd" d="M24.0268 31.3806L24.0268 43.8232L20.6333 43.8232L20.6333 31.3806L24.0268 31.3806Z" fill="url(#paint4_linear_104_327)"/>
<path fill-rule="evenodd" clip-rule="evenodd" d="M24.0268 -0.00885215L24.0268 12.4338L20.6333 12.4338L20.6333 -0.00885201L24.0268 -0.00885215Z" fill="url(#paint5_linear_104_327)"/>
<defs>
<linearGradient id="paint0_linear_104_327" x1="22.0473" y1="5.92969" x2="22.0473" y2="39.2987" gradientUnits="userSpaceOnUse">
<stop stop-color="#3AB3F4"/>
<stop offset="1" stop-color="#63B8D0"/>
</linearGradient>
<linearGradient id="paint1_linear_104_327" x1="22.047" y1="16.3928" x2="22.047" y2="28.8355" gradientUnits="userSpaceOnUse">
<stop stop-color="#3AB3F4"/>
<stop offset="1" stop-color="#63B8D0"/>
</linearGradient>
<linearGradient id="paint2_linear_104_327" x1="37.7419" y1="20.6348" x2="37.7419" y2="24.0282" gradientUnits="userSpaceOnUse">
<stop stop-color="#3AB3F4"/>
<stop offset="1" stop-color="#63B8D0"/>
</linearGradient>
<linearGradient id="paint3_linear_104_327" x1="6.3522" y1="20.6348" x2="6.3522" y2="24.0282" gradientUnits="userSpaceOnUse">
<stop stop-color="#3AB3F4"/>
<stop offset="1" stop-color="#63B8D0"/>
</linearGradient>
<linearGradient id="paint4_linear_104_327" x1="20.6333" y1="37.6019" x2="24.0268" y2="37.6019" gradientUnits="userSpaceOnUse">
<stop stop-color="#3AB3F4"/>
<stop offset="1" stop-color="#63B8D0"/>
</linearGradient>
<linearGradient id="paint5_linear_104_327" x1="20.6333" y1="6.21249" x2="24.0268" y2="6.21249" gradientUnits="userSpaceOnUse">
<stop stop-color="#3AB3F4"/>
<stop offset="1" stop-color="#63B8D0"/>
</linearGradient>
</defs>
</svg>
