<svg width="100" height="110" viewBox="0 0 100 110" fill="none" xmlns="http://www.w3.org/2000/svg">
<path d="M49.5995 79.8865C45.2845 79.8865 41.7761 76.3698 41.7761 72.047C41.7761 67.7242 45.2864 64.2094 49.5995 64.2094C53.9125 64.2094 57.4228 67.7261 57.4228 72.047C57.4228 76.3679 53.9125 79.8865 49.5995 79.8865ZM49.5995 67.728C47.2221 67.728 45.2884 69.6653 45.2884 72.047C45.2884 74.4287 47.2221 76.3679 49.5995 76.3679C51.9768 76.3679 53.9105 74.4287 53.9105 72.047C53.9105 69.6653 51.9768 67.728 49.5995 67.728Z" fill="white"/>
<path d="M49.5959 110C45.8321 110 41.3655 108.784 37.6439 106.745C37.6324 106.739 37.6209 106.731 37.6075 106.724C37.5806 106.708 37.5575 106.693 37.5326 106.678C36.029 105.723 33.7476 104.04 32.246 102.424C31.8139 101.958 31.666 101.297 31.8581 100.693L36.8547 84.9346C37.4308 83.1185 40.4034 79.7345 44.0328 79.7345H55.1015C58.5695 79.7345 61.7572 83.1012 62.3372 84.9346L67.3338 100.693C67.5258 101.299 67.378 101.958 66.9459 102.424C65.4577 104.027 63.1379 105.733 61.5979 106.71C61.5652 106.731 61.5326 106.751 61.4999 106.77C61.4922 106.774 61.4826 106.78 61.475 106.783C57.738 108.798 53.2983 109.998 49.5979 109.998L49.5959 110ZM40.5955 104.3C43.5278 105.677 46.8038 106.481 49.5959 106.481C52.3881 106.481 55.6046 105.671 58.5273 104.325L54.7308 91.97C54.6444 91.8584 54.5734 91.7391 54.5158 91.616C54.1951 90.9042 54.318 89.873 55.3434 89.2882C55.4778 89.2112 55.6238 89.1535 55.7755 89.1131C55.7755 89.1131 55.7755 89.1131 55.7793 89.1131C55.7793 89.1131 55.787 89.1131 55.7889 89.1112C55.7889 89.1112 55.7889 89.1112 55.7928 89.1112C55.7928 89.1112 55.7928 89.1112 55.7947 89.1112H55.7966C55.7966 89.1112 55.8024 89.1112 55.8043 89.1112C55.8043 89.1112 55.8062 89.1112 55.8081 89.1112C55.8081 89.1112 55.8081 89.1112 55.8101 89.1112C55.8101 89.1112 55.8101 89.1112 55.8139 89.1112C55.8158 89.1112 55.8158 89.1093 55.8216 89.1112C55.8216 89.1112 55.8216 89.1112 55.8235 89.1112C55.8235 89.1112 55.8235 89.1112 55.8273 89.1112C55.8273 89.1112 55.8273 89.1112 55.8293 89.1112C55.8677 89.1016 55.908 89.0958 55.9464 89.09C57.1159 88.9111 57.8552 89.646 58.0415 90.404C58.0856 90.5829 58.0991 90.7714 58.0856 90.96L61.6094 102.432C62.3257 101.895 63.0419 101.312 63.6526 100.746L58.9805 86.0138C58.7596 85.3713 56.7817 83.2685 55.0919 83.2685H44.0232C42.2604 83.2685 40.4111 85.3309 40.1941 86.0158L35.522 100.75C36.1192 101.306 36.8125 101.874 37.5018 102.395L41.0256 90.9273C41.016 90.7407 41.0352 90.556 41.0813 90.3809C41.2887 89.5979 42.0818 88.9111 43.1936 89.1054C43.3108 89.1266 43.4241 89.1574 43.5354 89.2016C43.5354 89.2016 43.5354 89.2016 43.5374 89.2016C43.5393 89.2016 43.5412 89.2016 43.5451 89.2035C43.5451 89.2035 43.545 89.2035 43.5489 89.2035C43.5489 89.2035 43.5508 89.2035 43.5527 89.2035C43.618 89.2305 43.6814 89.2612 43.7428 89.2939C44.7299 89.8403 44.9104 90.8734 44.5801 91.6141C44.5282 91.7295 44.463 91.8392 44.3881 91.9411L40.5897 104.307L40.5955 104.3Z" fill="white"/>
<path d="M84.2784 79.7769C80.0249 79.7769 76.5664 76.3102 76.5664 72.0489C76.5664 67.7876 80.0268 64.3209 84.2784 64.3209C88.5299 64.3209 91.9922 67.7876 91.9922 72.0489C91.9922 76.3102 88.5318 79.7769 84.2784 79.7769ZM84.2784 67.8396C81.9625 67.8396 80.0786 69.7288 80.0786 72.0489C80.0786 74.369 81.9625 76.2582 84.2784 76.2582C86.5943 76.2582 88.48 74.369 88.48 72.0489C88.48 69.7288 86.5943 67.8396 84.2784 67.8396Z" fill="white"/>
<path d="M84.2803 110C81.3192 110 77.855 109.113 75.6005 108.282C75.5794 108.274 75.5583 108.267 75.5372 108.259C75.5122 108.247 75.4872 108.236 75.4623 108.226C73.6879 107.414 70.9803 105.906 69.1694 104.323C68.7873 103.99 68.5684 103.505 68.5684 102.997V85.6561C68.5684 82.3933 71.2165 79.7384 74.4733 79.7384H94.0931C97.3499 79.7384 100 82.3933 100 85.6561V90.2367V102.995C100 103.503 99.781 103.986 99.3989 104.321C97.5842 105.906 94.8939 107.405 93.1368 108.211C93.108 108.224 93.0772 108.238 93.0465 108.249C93.0331 108.255 93.0196 108.259 93.0062 108.265C90.7556 109.104 87.2837 110 84.2842 110H84.2803ZM77.9548 105.366C79.8022 105.941 82.2352 106.481 84.2803 106.481C86.0547 106.481 88.4435 106.052 90.6385 105.358V90.1289C90.6385 89.1574 91.4239 88.3686 92.3955 88.3686C93.3672 88.3686 94.1526 89.1555 94.1526 90.1289V103.711C94.9745 103.228 95.7926 102.695 96.4858 102.162V90.2367V85.6561C96.4858 84.3325 95.4123 83.2571 94.0912 83.2571H74.4714C73.1502 83.2571 72.0768 84.3325 72.0768 85.6561V102.162C72.7796 102.701 73.6092 103.24 74.4445 103.728V90.1289C74.4445 89.1574 75.2299 88.3686 76.2016 88.3686C77.1733 88.3686 77.9587 89.1555 77.9587 90.1289V105.367L77.9548 105.366Z" fill="white"/>
<path d="M15.7139 79.7769C11.4604 79.7769 8.00195 76.3102 8.00195 72.0489C8.00195 67.7876 11.4623 64.3209 15.7139 64.3209C19.9655 64.3209 23.4278 67.7876 23.4278 72.0489C23.4278 76.3102 19.9674 79.7769 15.7139 79.7769ZM15.7139 67.8396C13.398 67.8396 11.5142 69.7288 11.5142 72.0489C11.5142 74.369 13.398 76.2582 15.7139 76.2582C18.0298 76.2582 19.9155 74.369 19.9155 72.0489C19.9155 69.7288 18.0298 67.8396 15.7139 67.8396Z" fill="white"/>
<path d="M15.7139 110C12.7528 110 9.28853 109.113 7.03409 108.282C7.01296 108.274 6.99184 108.267 6.97072 108.259C6.94575 108.247 6.92079 108.236 6.89582 108.226C5.12146 107.414 2.41383 105.906 0.601056 104.323C0.218915 103.99 0 103.505 0 102.997V85.6561C0 82.3933 2.65002 79.7384 5.90495 79.7384H25.5247C28.7816 79.7384 31.4316 82.3933 31.4316 85.6561V90.2367V102.995C31.4316 103.503 31.2127 103.986 30.8305 104.321C29.0158 105.906 26.3255 107.405 24.5684 108.211C24.5396 108.224 24.5089 108.238 24.4782 108.249C24.4647 108.255 24.4513 108.259 24.4378 108.265C22.1872 109.104 18.7153 110 15.7158 110H15.7139ZM9.38838 105.366C11.2357 105.941 13.6687 106.481 15.7139 106.481C17.4882 106.481 19.8771 106.052 22.072 105.358V90.1289C22.072 89.1574 22.8574 88.3686 23.8291 88.3686C24.8008 88.3686 25.5862 89.1555 25.5862 90.1289V103.711C26.41 103.228 27.2261 102.695 27.9193 102.162V90.2367V85.6561C27.9193 84.3325 26.8459 83.2571 25.5247 83.2571H5.90495C4.58569 83.2571 3.51032 84.3325 3.51032 85.6561V102.162C4.21123 102.701 5.04081 103.24 5.87614 103.728V90.1289C5.87614 89.1574 6.66155 88.3686 7.63322 88.3686C8.6049 88.3686 9.3903 89.1555 9.3903 90.1289V105.367L9.38838 105.366Z" fill="white"/>
<path d="M66.6748 92.5183C65.1404 92.5183 63.4928 92.3201 61.7761 91.9277C61.1692 91.7892 60.6815 91.339 60.4933 90.7445L58.9897 86.0023C58.7689 85.3598 56.7909 83.257 55.1011 83.257H49.6013C48.6316 83.257 47.8442 82.4702 47.8442 81.4967V78.1281C47.8442 77.1566 48.6296 76.3678 49.6013 76.3678C51.9787 76.3678 53.9124 74.4286 53.9124 72.0469C53.9124 70.7792 53.3555 69.5787 52.3858 68.7534C51.7194 68.1858 51.5696 67.2143 52.0363 66.4717L53.1942 64.6326C53.2211 64.5902 53.2499 64.5479 53.2806 64.5075C54.3349 63.1166 55.9249 62.3201 57.6455 62.3201H75.3027C77.3766 62.3201 79.2509 63.484 80.1957 65.3578L81.2845 67.3374C81.6359 67.9781 81.5552 68.7688 81.0848 69.3247C80.4376 70.0866 80.0824 71.0523 80.0824 72.0431C80.0824 74.3632 81.9662 76.2524 84.2821 76.2524C85.2518 76.2524 86.0391 77.0393 86.0391 78.0127V81.4929C86.0391 82.4644 85.2537 83.2532 84.2821 83.2532H74.4731C73.152 83.2532 72.0785 84.3286 72.0785 85.6522V90.3751C72.0785 91.2197 71.4813 91.945 70.6536 92.1027C69.2288 92.3759 67.8903 92.5144 66.6767 92.5144L66.6748 92.5183ZM63.5293 88.6957C64.6335 88.8977 65.6877 88.9996 66.6748 88.9996C67.2643 88.9996 67.8942 88.9573 68.5644 88.8765V85.656C68.5644 82.3932 71.2144 79.7384 74.4712 79.7384H82.5231V79.5748C79.1126 78.7765 76.5663 75.7041 76.5663 72.0489C76.5663 70.6426 76.9542 69.267 77.6724 68.0704L77.0867 67.0027C76.7141 66.2659 76.042 65.8426 75.3008 65.8426H57.6436C57.0521 65.8426 56.4991 66.1139 56.1169 66.5891L55.7367 67.1912C56.8217 68.5648 57.4227 70.2693 57.4227 72.0489C57.4227 75.7676 54.8265 78.888 51.3546 79.6883V79.7384H55.0992C58.5672 79.7384 61.7549 83.105 62.3349 84.9384L63.5274 88.6976L63.5293 88.6957Z" fill="white"/>
<path d="M32.5742 92.5182C31.5622 92.5182 30.4964 92.4336 29.4057 92.2643C28.5492 92.1315 27.9174 91.3928 27.9174 90.5251V85.656C27.9174 84.3324 26.844 83.257 25.5247 83.257H15.7139C14.7441 83.257 13.9568 82.4701 13.9568 81.4967V78.0165C13.9568 77.045 14.7422 76.2562 15.7139 76.2562C18.0317 76.2562 19.9155 74.367 19.9155 72.0469C19.9155 71.6275 19.8521 71.21 19.7292 70.8099C19.6006 70.3886 19.6332 69.9326 19.8233 69.5344L21.1215 66.8083C21.9011 65.0019 24.6049 62.4201 27.5852 62.4201H37.5478C40.4033 62.4201 43.1243 64.898 44.0115 66.6948L45.4249 68.8668C45.7359 69.3439 45.7974 69.9422 45.5881 70.4732C45.3884 70.9811 45.2866 71.5101 45.2866 72.0469C45.2866 74.4286 47.2203 76.3678 49.5977 76.3678C50.5674 76.3678 51.3548 77.1546 51.3548 78.1281V81.4967C51.3548 82.4682 50.5694 83.257 49.5977 83.257H44.0307C42.2679 83.257 40.4186 85.3193 40.2016 86.0042L38.6961 90.7522C38.5079 91.3466 38.0182 91.7968 37.4114 91.9353C35.7081 92.3239 34.0797 92.5201 32.5722 92.5201L32.5742 92.5182ZM31.4297 88.9572C31.8195 88.9861 32.2016 88.9996 32.5742 88.9996C33.5362 88.9996 34.5713 88.8995 35.6601 88.7014L36.8545 84.9365C37.4306 83.1204 40.4033 79.7364 44.0326 79.7364H47.8444V79.6864C44.3725 78.8861 41.7763 75.7637 41.7763 72.0469C41.7763 71.3832 41.8608 70.7271 42.0278 70.0865L41.0062 68.5186C40.9563 68.4417 40.9121 68.3609 40.8756 68.2781C40.5626 67.5798 38.8651 65.9388 37.5497 65.9388H27.5871C26.1795 65.9388 24.626 67.5548 24.3188 68.2647L23.2664 70.4751C23.374 70.9907 23.4277 71.5159 23.4277 72.045C23.4277 75.7021 20.8795 78.7725 17.469 79.5709V79.7345H25.5228C28.7796 79.7345 31.4297 82.3893 31.4297 85.6521V88.9534V88.9572Z" fill="white"/>
<path d="M70.477 49.267C69.5072 49.267 68.7199 48.4802 68.7199 47.5067C68.7199 46.3197 68.6988 45.1154 68.6566 43.9265C67.8711 21.6449 59.4986 3.51866 49.9969 3.51866C40.4952 3.51866 32.0459 21.7911 31.3258 44.2516C31.2912 45.3367 31.2739 46.4313 31.2739 47.5067C31.2739 48.4783 30.4885 49.267 29.5168 49.267C28.5452 49.267 27.7598 48.4802 27.7598 47.5067C27.7598 46.3948 27.777 45.2616 27.8135 44.1401C28.6201 18.9765 38.1563 0 49.9969 0C61.8375 0 71.2874 18.8322 72.1688 43.8034C72.211 45.0346 72.2322 46.2793 72.2322 47.5067C72.2322 48.4783 71.4468 49.267 70.4751 49.267H70.477Z" fill="white"/>
<path d="M90.024 64.0804C89.2232 64.0804 88.4993 63.5283 88.313 62.7126C86.0893 52.9742 74.8689 40.7157 59.7273 31.4852C49.5151 25.2597 38.8574 21.1985 29.7186 20.0481C21.1906 18.9746 14.9112 20.6502 12.4858 24.646C9.08878 30.2385 13.2866 40.2847 23.1819 50.2405C23.8655 50.9292 23.8636 52.0431 23.1762 52.7299C22.4868 53.4148 21.3749 53.4128 20.6913 52.7241C9.27505 41.237 5.08494 30.0577 9.48437 22.8165C12.7086 17.5067 20.0518 15.2847 30.1565 16.5564C39.7772 17.7664 50.9265 22.0008 61.5535 28.4783C77.4652 38.1781 89.3135 51.3082 91.7369 61.9277C91.952 62.8742 91.3624 63.8188 90.4157 64.0362C90.2851 64.0669 90.1526 64.0804 90.022 64.0804H90.024Z" fill="white"/>
<path d="M10.0334 63.8111C9.89515 63.8111 9.75689 63.7938 9.61671 63.7611C8.67384 63.5302 8.09583 62.5799 8.32626 61.6353C10.8918 51.0812 22.7113 38.0666 38.4386 28.4783C61.1558 14.6345 84.0267 12.1451 90.5097 22.8165C94.9033 30.0539 90.719 41.2274 79.3162 52.7068C78.6326 53.3955 77.5188 53.3975 76.8332 52.7126C76.1458 52.0277 76.1419 50.9138 76.8275 50.2251C86.7113 40.2751 90.9033 30.2347 87.5101 24.646C82.235 15.9581 60.5989 19.092 40.2667 31.4852C25.2941 40.6137 14.0968 52.7742 11.7406 62.4683C11.5447 63.2724 10.8265 63.813 10.0353 63.813L10.0334 63.8111Z" fill="white"/>
<path d="M32.5971 63.6764C28.6183 63.6764 25.3806 60.4329 25.3806 56.4448C25.3806 52.4567 28.6183 49.2151 32.5971 49.2151C36.576 49.2151 39.8136 52.4586 39.8136 56.4448C39.8136 60.4309 36.576 63.6764 32.5971 63.6764ZM32.5971 52.7337C30.5539 52.7337 28.8929 54.3998 28.8929 56.4448C28.8929 58.4898 30.5558 60.1578 32.5971 60.1578C34.6384 60.1578 36.3014 58.4917 36.3014 56.4448C36.3014 54.3978 34.6384 52.7337 32.5971 52.7337Z" fill="white"/>
<path d="M66.4712 63.4783C62.546 63.4783 59.3545 60.279 59.3545 56.3467C59.3545 52.4144 62.546 49.2151 66.4712 49.2151C70.3963 49.2151 73.5897 52.4144 73.5897 56.3467C73.5897 60.279 70.3963 63.4783 66.4712 63.4783ZM66.4712 52.7337C64.4836 52.7337 62.8667 54.3555 62.8667 56.3467C62.8667 58.3378 64.4836 59.9596 66.4712 59.9596C68.4587 59.9596 70.0775 58.3398 70.0775 56.3467C70.0775 54.3536 68.4606 52.7337 66.4712 52.7337Z" fill="white"/>
<path d="M41.3998 84.0746C40.649 84.0746 39.9538 83.5879 39.7215 82.8319L37.3556 75.1289C37.2692 75.0173 37.1963 74.8961 37.1406 74.773C36.8199 74.0612 36.9447 73.03 37.9721 72.4452C37.9778 72.4413 37.9855 72.4375 37.9913 72.4336C38.1987 72.3201 38.4214 72.2509 38.6442 72.2259C39.7714 72.0873 40.4877 72.8069 40.6701 73.5494C40.7143 73.7284 40.7296 73.915 40.7143 74.1054L43.0782 81.7968C43.3643 82.7261 42.842 83.711 41.9164 83.9958C41.7435 84.0477 41.5707 84.0746 41.3998 84.0746Z" fill="white"/>
<path d="M23.2261 83.2167C23.0552 83.2167 22.8805 83.1917 22.7095 83.1379C21.782 82.8512 21.2616 81.8662 21.5478 80.9389L23.6582 74.0709C23.6486 73.8843 23.6678 73.6977 23.7139 73.5226C23.9232 72.7396 24.7163 72.0547 25.8281 72.249C25.8454 72.2529 25.8627 72.2548 25.88 72.2587C26.0835 72.301 26.2717 72.376 26.4388 72.4799C27.3701 73.034 27.5353 74.0382 27.2127 74.7635C27.1608 74.877 27.0974 74.9886 27.0206 75.0905L24.9045 81.9739C24.6721 82.73 23.9769 83.2167 23.2261 83.2167Z" fill="white"/>
<path d="M74.0122 83.1225C73.0425 83.1225 72.2551 82.3356 72.2551 81.3622V72.6973C72.2551 71.7258 73.0405 70.937 74.0122 70.937C74.9839 70.937 75.7693 71.7239 75.7693 72.6973V81.3622C75.7693 82.3337 74.9839 83.1225 74.0122 83.1225Z" fill="white"/>
<path d="M59.2683 84.7577C58.2986 84.7577 57.5112 83.9709 57.5112 82.9974V72.6973C57.5112 71.7258 58.2966 70.937 59.2683 70.937C60.24 70.937 61.0254 71.7239 61.0254 72.6973V82.9974C61.0254 83.9689 60.24 84.7577 59.2683 84.7577Z" fill="white"/>
</svg>
