<svg width="124" height="124" viewBox="0 0 124 124" fill="none" xmlns="http://www.w3.org/2000/svg">
<g filter="url(#filter0_dd_89_270)">
<path fill-rule="evenodd" clip-rule="evenodd" d="M62.1133 29.1632C44.2416 29.1632 29.7537 43.651 29.7537 61.5228C29.7537 79.3945 44.2416 93.8824 62.1133 93.8824C79.9851 93.8824 94.473 79.3945 94.473 61.5228C94.473 43.651 79.9851 29.1632 62.1133 29.1632ZM21.4917 61.5228C21.4917 39.0881 39.6786 20.9011 62.1133 20.9011C84.5481 20.9011 102.735 39.0881 102.735 61.5228C102.735 83.9575 84.5481 102.144 62.1133 102.144C39.6786 102.144 21.4917 83.9575 21.4917 61.5228Z" fill="white"/>
<path fill-rule="evenodd" clip-rule="evenodd" d="M62.1129 54.6378C58.3104 54.6378 55.2278 57.7203 55.2278 61.5228C55.2278 65.3253 58.3104 68.4078 62.1129 68.4078C65.9154 68.4078 68.9979 65.3253 68.9979 61.5228C68.9979 57.7203 65.9154 54.6378 62.1129 54.6378ZM46.9658 61.5228C46.9658 53.1573 53.7474 46.3757 62.1129 46.3757C70.4784 46.3757 77.2599 53.1573 77.2599 61.5228C77.2599 69.8883 70.4784 76.6698 62.1129 76.6698C53.7474 76.6698 46.9658 69.8883 46.9658 61.5228Z" fill="white"/>
<path fill-rule="evenodd" clip-rule="evenodd" d="M115.472 64.9653L85.1777 64.9653L85.1777 56.7032L115.472 56.7032L115.472 64.9653Z" fill="white"/>
<path fill-rule="evenodd" clip-rule="evenodd" d="M39.0485 64.9653L8.7544 64.9653L8.75439 56.7032L39.0485 56.7032L39.0485 64.9653Z" fill="white"/>
<path fill-rule="evenodd" clip-rule="evenodd" d="M66.9329 82.8664L66.9329 113.161L58.6709 113.161L58.6709 82.8664L66.9329 82.8664Z" fill="white"/>
<path fill-rule="evenodd" clip-rule="evenodd" d="M66.9329 6.44258L66.9329 36.7367L58.6709 36.7367L58.6709 6.44258L66.9329 6.44258Z" fill="white"/>
</g>
<defs>
<filter id="filter0_dd_89_270" x="0.68908" y="0.39358" width="122.848" height="122.849" filterUnits="userSpaceOnUse" color-interpolation-filters="sRGB">
<feFlood flood-opacity="0" result="BackgroundImageFix"/>
<feColorMatrix in="SourceAlpha" type="matrix" values="0 0 0 0 0 0 0 0 0 0 0 0 0 0 0 0 0 0 127 0" result="hardAlpha"/>
<feMorphology radius="2.01633" operator="dilate" in="SourceAlpha" result="effect1_dropShadow_89_270"/>
<feOffset dy="2.01633"/>
<feGaussianBlur stdDeviation="3.02449"/>
<feColorMatrix type="matrix" values="0 0 0 0 0.235294 0 0 0 0 0.25098 0 0 0 0 0.262745 0 0 0 0.15 0"/>
<feBlend mode="normal" in2="BackgroundImageFix" result="effect1_dropShadow_89_270"/>
<feColorMatrix in="SourceAlpha" type="matrix" values="0 0 0 0 0 0 0 0 0 0 0 0 0 0 0 0 0 0 127 0" result="hardAlpha"/>
<feOffset dy="1.00816"/>
<feGaussianBlur stdDeviation="1.00816"/>
<feColorMatrix type="matrix" values="0 0 0 0 0.235294 0 0 0 0 0.25098 0 0 0 0 0.262745 0 0 0 0.3 0"/>
<feBlend mode="normal" in2="effect1_dropShadow_89_270" result="effect2_dropShadow_89_270"/>
<feBlend mode="normal" in="SourceGraphic" in2="effect2_dropShadow_89_270" result="shape"/>
</filter>
</defs>
</svg>
