<svg width="118" height="100" viewBox="0 0 118 100" fill="none" xmlns="http://www.w3.org/2000/svg">
<g clip-path="url(#clip0_66_50711)">
<path d="M22.4881 73.0858V66.8857C13.5725 66.8857 6.31848 59.6317 6.31848 50.7161C6.31848 41.8005 13.5725 34.5465 22.4881 34.5465C26.3507 34.5465 30.0893 35.9291 33.0157 38.4401L37.0519 33.7343C33.0033 30.2561 27.8263 28.3403 22.4881 28.3403C10.1563 28.3465 0.118469 38.3781 0.118469 50.7161C0.118469 63.0541 10.1563 73.0858 22.4881 73.0858Z" fill="white"/>
<path d="M45.0128 6.20001C53.9284 6.20001 61.1824 13.454 61.1824 22.3696H67.3824C67.3824 16.7214 71.9766 12.1272 77.6248 12.1272C83.2731 12.1272 87.8673 16.7214 87.8673 22.3696V25.4697H90.9673C102.388 25.4697 111.675 34.7573 111.675 46.1777C111.675 57.5981 102.388 66.8857 90.9673 66.8857V73.0857C105.804 73.0857 117.875 61.0143 117.875 46.1777C117.875 32.2959 107.311 20.8382 93.8007 19.4184C92.4057 11.7552 85.6787 5.92721 77.6186 5.92721C72.4664 5.92721 67.8536 8.31422 64.8404 12.0342C61.108 4.88561 53.6246 0 45.0128 0C32.6748 0 22.6431 10.0378 22.6431 22.3696H28.8431C28.8431 13.454 36.0972 6.20001 45.0128 6.20001Z" fill="white"/>
<path d="M37.9819 70.0973L33.2141 72.8502L27.8449 75.9502L30.9449 81.3194L35.2477 88.7718L38.3477 94.141L43.7169 91.041L48.491 88.282H48.4972V100H69.4966V88.282H69.5028L74.2768 91.0348L79.646 94.1348L82.746 88.7656L87.0488 81.3132L90.1488 75.944L84.7796 72.8439L80.0118 70.0911V70.0725L84.7796 67.3197L90.1488 64.2197L87.0488 58.8505L82.746 51.4043L79.646 46.0351L74.2768 49.1351L69.5028 51.8941C69.5028 51.8941 69.5028 51.8941 69.4966 51.8941V40.1761H48.4972V51.8941H48.491L43.7169 49.1413L38.3477 46.0413L35.2477 51.4105L30.9449 58.8567L27.8449 64.2259L33.2141 67.3259L37.9819 70.0787V70.0973ZM44.2129 71.0211C44.1943 70.7111 44.1819 70.4011 44.1819 70.0849C44.1819 69.7935 44.1881 69.5083 44.2067 69.2231C44.2253 68.9379 44.2501 68.6527 44.2811 68.3737C44.3493 67.8095 44.4423 67.2577 44.5725 66.7183L36.3141 61.9505L38.4655 58.2243L40.6169 54.4981L48.8816 59.2721C49.0614 59.1047 49.2474 58.9373 49.4396 58.7761C49.6318 58.6149 49.824 58.4599 50.0224 58.3049C51.0144 57.5485 52.1056 56.9099 53.2712 56.4139C53.7362 56.2155 54.2136 56.0419 54.7034 55.8931V46.3575H63.3028V55.8931C65.5038 56.5627 67.4878 57.7283 69.1246 59.2659L72.1502 57.5175L77.3892 54.4919L79.5406 58.2181L81.692 61.9443L73.4336 66.7121C73.5576 67.2515 73.6568 67.8033 73.725 68.3675C73.756 68.6465 73.7808 68.9317 73.7994 69.2169C73.818 69.5021 73.8242 69.7873 73.8242 70.0787C73.8242 70.3949 73.8118 70.7049 73.7932 71.0149C73.7374 71.8457 73.6196 72.658 73.4336 73.4454L77.5628 75.8262L81.692 78.207L79.5406 81.9332L77.3892 85.6594L69.1246 80.8854C67.897 82.0386 66.471 82.981 64.9086 83.663C64.3878 83.8924 63.8484 84.0908 63.3028 84.2582V93.7938H54.7034V84.2582C54.1516 84.0908 53.6184 83.8924 53.0976 83.663C51.5352 82.981 50.1154 82.0386 48.8816 80.8854L40.6169 85.6594L38.4655 81.9332L36.3141 78.207L40.4433 75.8262L44.5725 73.4454C44.3865 72.658 44.2687 71.8457 44.2129 71.0149V71.0211Z" fill="white"/>
<path d="M59 81.958C65.541 81.958 70.8668 76.6321 70.8668 70.0911C70.8668 63.5501 65.541 58.2243 59 58.2243C52.459 58.2243 47.1332 63.5501 47.1332 70.0911C47.1332 76.6321 52.459 81.958 59 81.958ZM53.5874 68.4047C53.699 68.0513 53.8416 67.7103 54.0152 67.3879C54.1888 67.0655 54.3934 66.7617 54.6228 66.4827C54.8522 66.2037 55.1126 65.9433 55.3916 65.7139C55.5342 65.5961 55.6768 65.4907 55.8256 65.3853C56.7308 64.7715 57.822 64.4181 58.9938 64.4181C59.8742 64.4181 60.705 64.6165 61.449 64.9761C61.697 65.0939 61.9326 65.2303 62.162 65.3853C62.3108 65.4845 62.4596 65.5961 62.596 65.7139C62.875 65.9433 63.1354 66.2037 63.3648 66.4827C63.5942 66.7617 63.7988 67.0655 63.9724 67.3879C64.146 67.7103 64.2886 68.0513 64.4002 68.4047C64.5676 68.9379 64.6544 69.5021 64.6544 70.0911C64.6544 70.4817 64.6172 70.8661 64.5366 71.2319C64.4622 71.6039 64.3506 71.9573 64.208 72.2983C64.1088 72.5339 63.991 72.7509 63.8608 72.9679C63.712 73.2221 63.5446 73.4701 63.3586 73.6933C63.1292 73.9723 62.8688 74.2327 62.5898 74.4621C62.3604 74.6481 62.1186 74.8155 61.8644 74.9643C61.728 75.0449 61.5916 75.1193 61.449 75.1875C60.705 75.5471 59.868 75.7579 58.9876 75.7579C58.008 75.7579 57.0904 75.5099 56.2844 75.0759C55.962 74.9023 55.6582 74.6977 55.3792 74.4683C55.1002 74.2389 54.8398 73.9785 54.6104 73.6995C54.4244 73.4701 54.257 73.2283 54.1082 72.9741C53.978 72.7571 53.8602 72.5339 53.761 72.3045C53.6184 71.9635 53.5068 71.6101 53.4324 71.2381C53.358 70.8723 53.3146 70.4879 53.3146 70.0973C53.3146 69.5083 53.4014 68.9441 53.5688 68.4109L53.5874 68.4047Z" fill="white"/>
</g>
<defs>
<clipPath id="clip0_66_50711">
<rect width="117.763" height="100" fill="white" transform="translate(0.118469)"/>
</clipPath>
</defs>
</svg>
