<svg width="110" height="110" viewBox="0 0 110 110" fill="none" xmlns="http://www.w3.org/2000/svg">
<g clip-path="url(#clip0_88_712)">
<path d="M87.679 110H1.63154C0.731075 110 0 109.255 0 108.333V97.3408C0 96.4206 0.729292 95.6735 1.63154 95.6735H87.679C88.5795 95.6735 89.3106 96.4188 89.3106 97.3408V108.333C89.3106 109.253 88.5813 110 87.679 110ZM3.26309 106.667H86.0493V99.0082H3.26131V106.667H3.26309Z" fill="white"/>
<path d="M30.6713 99.0082H18.3981C17.4977 99.0082 16.7666 98.2629 16.7666 97.3408V75.3098C16.7666 71.3865 19.8906 68.194 23.7296 68.194H25.3398C29.1788 68.194 32.3028 71.3865 32.3028 75.3098V97.3408C32.3028 98.2611 31.5735 99.0082 30.6713 99.0082ZM20.0297 95.6753H29.0415V75.3117C29.0415 73.227 27.3814 71.5287 25.3398 71.5287H23.7296C21.6898 71.5287 20.0279 73.2252 20.0279 75.3117V95.6753H20.0297Z" fill="white"/>
<path d="M50.7919 99.0082H38.5188C37.6183 99.0082 36.8872 98.2629 36.8872 97.3408V75.3098C36.8872 71.3865 40.0112 68.194 43.8502 68.194H45.4604C49.2994 68.194 52.4234 71.3865 52.4234 75.3098V97.3408C52.4234 98.2611 51.6941 99.0082 50.7919 99.0082ZM40.1485 95.6753H49.1603V75.3117C49.1603 73.227 47.5003 71.5287 45.4586 71.5287H43.8485C41.8086 71.5287 40.1467 73.2252 40.1467 75.3117V95.6753H40.1485Z" fill="white"/>
<path d="M70.9105 99.0082H58.6374C57.7369 99.0082 57.0059 98.2629 57.0059 97.3408V75.3098C57.0059 71.3865 60.1299 68.194 63.9689 68.194H65.5773C69.4163 68.194 72.5403 71.3865 72.5403 75.3098V97.3408C72.5403 98.2611 71.811 99.0082 70.9088 99.0082H70.9105ZM60.2689 95.6753H69.2808V75.3117C69.2808 73.227 67.6207 71.5287 65.579 71.5287H63.9707C61.9308 71.5287 60.2689 73.2252 60.2689 75.3117V95.6753Z" fill="white"/>
<path d="M48.185 9.71804H41.1667C40.5872 9.71804 40.0522 9.40461 39.7598 8.89256C39.4674 8.38233 39.462 7.75001 39.7455 7.23432L43.2547 0.849159C43.5436 0.322529 44.0874 -0.00183105 44.6776 -0.00183105C45.2678 -0.00183105 45.8099 0.322529 46.1005 0.847337L49.6097 7.23249C49.8932 7.74819 49.8879 8.38051 49.5954 8.89074C49.303 9.40097 48.7663 9.71622 48.1886 9.71622L48.185 9.71804ZM43.9537 6.38515H45.398L44.6758 5.06949L43.9537 6.38515Z" fill="white"/>
<path d="M48.185 26.9802C47.2845 26.9802 46.5535 26.2349 46.5535 25.3128V9.71802H42.7982V25.2928C42.7982 26.213 42.069 26.9601 41.1667 26.9601C40.2644 26.9601 39.5352 26.2148 39.5352 25.2928V8.05249C39.5352 7.13225 40.2644 6.38513 41.1667 6.38513H48.185C49.0855 6.38513 49.8166 7.13043 49.8166 8.05249V25.3146C49.8166 26.2349 49.0873 26.982 48.185 26.982V26.9802Z" fill="white"/>
<path d="M52.8816 33.5421C52.0756 33.5421 51.3748 32.9317 51.2661 32.0934C50.8292 28.715 47.9869 26.1693 44.6525 26.1693C41.3181 26.1693 38.4758 28.7168 38.039 32.0934C37.9213 33.0064 37.1046 33.6569 36.2095 33.5276C35.3161 33.4073 34.6885 32.5691 34.8062 31.6579C35.4552 26.6285 39.6883 22.8364 44.6525 22.8364C49.6167 22.8364 53.848 26.6285 54.4988 31.6561C54.6165 32.5691 53.9889 33.4055 53.0955 33.5276C53.0224 33.5385 52.9511 33.5421 52.8798 33.5421H52.8816Z" fill="white"/>
<path d="M85.7049 82.772C85.5498 82.772 85.3965 82.7501 85.2467 82.7046C74.9474 79.6195 66.9181 72.274 63.2181 62.5505C61.2246 57.3097 61.3494 51.6061 61.4707 46.0901C61.4974 44.8856 61.5242 43.692 61.526 42.5203C61.5295 40.7764 61.526 39.0344 61.5206 37.2905C61.5153 34.958 61.5081 32.6274 61.5206 30.2949C61.5242 29.5569 62.0021 28.91 62.6957 28.7041C63.047 28.5984 71.4704 26.1438 85.7049 26.1438C99.9395 26.1438 108.391 28.6057 108.73 28.7095C109.415 28.9209 109.884 29.5642 109.889 30.2949C109.904 32.631 109.896 34.9653 109.889 37.3014C109.884 39.0398 109.88 40.7801 109.884 42.5185C109.886 43.692 109.912 44.8874 109.939 46.0938C110.06 51.6079 110.185 57.3115 108.192 62.5505C104.492 72.2722 96.4624 79.6177 86.165 82.7046C86.0152 82.7501 85.8601 82.772 85.7067 82.772H85.7049ZM64.7766 31.6051C64.7712 33.4966 64.7766 35.3881 64.7819 37.2814C64.7873 39.0289 64.7908 40.7783 64.7873 42.5258C64.7855 43.7194 64.7587 44.9366 64.732 46.1648C64.6179 51.3546 64.4984 56.7229 66.2583 61.3442C69.5339 69.9506 76.6057 76.4962 85.7049 79.3662C94.8041 76.4962 101.876 69.9506 105.152 61.3442C106.91 56.7229 106.792 51.3582 106.678 46.1703C106.651 44.9403 106.624 43.723 106.623 42.5276C106.619 40.7837 106.623 39.038 106.628 37.2941C106.633 35.3954 106.639 33.4966 106.633 31.5978C103.951 30.9472 96.6764 29.4785 85.7067 29.4785C74.737 29.4785 67.519 30.9582 64.7784 31.6069L64.7766 31.6051Z" fill="white"/>
<path d="M85.705 82.772C85.5498 82.772 85.3965 82.7501 85.2467 82.7046C81.1973 81.4909 77.4688 79.6122 74.1647 77.1194C73.7225 76.7859 73.4746 76.2465 73.5049 75.6853C73.5352 75.124 73.8402 74.6174 74.318 74.335C94.2425 62.5614 103.698 48.0545 106.838 42.3655C107.202 41.7076 107.947 41.3814 108.666 41.571C109.381 41.7586 109.882 42.4147 109.889 43.1691C109.898 44.1312 109.92 45.1061 109.941 46.0883C110.06 51.6061 110.185 57.3097 108.192 62.5505C104.492 72.2722 96.4625 79.6177 86.165 82.7046C86.0152 82.7501 85.8601 82.772 85.7067 82.772H85.705ZM78.1731 75.8729C80.4965 77.349 83.0196 78.5189 85.705 79.3644C94.8042 76.4943 101.876 69.9488 105.152 61.3423C106.612 57.5029 106.78 53.1513 106.728 48.8126C102.051 55.7808 93.1352 66.5303 78.1713 75.8729H78.1731Z" fill="white"/>
<path d="M75.2879 49.423C74.8546 49.423 74.4409 49.2481 74.1342 48.9346L69.91 44.6177C69.2735 43.9672 69.2735 42.9121 69.91 42.2616C70.5466 41.611 71.5808 41.611 72.2156 42.2616L75.2861 45.3995L83.8968 36.5998C84.5333 35.9493 85.5657 35.9493 86.2023 36.5998C86.8389 37.2504 86.8389 38.3055 86.2023 38.956L76.4398 48.9346C76.1331 49.2481 75.7194 49.423 75.2861 49.423H75.2879Z" fill="white"/>
<path d="M75.1348 77.4455C74.7924 77.4455 74.4501 77.3344 74.163 77.1175L74.0667 77.0447C70.8196 74.5755 68.104 71.5888 65.991 68.1648C65.7342 67.7494 65.67 67.2373 65.818 66.769C65.9642 66.3007 66.3084 65.9217 66.7524 65.734C86.7517 57.3607 99.7631 31.3026 101.182 28.3597C101.5 27.7018 102.201 27.3337 102.907 27.4504C106.644 28.0717 108.645 28.6822 108.729 28.7077C109.413 28.9191 109.884 29.5623 109.888 30.2949C109.902 32.6419 109.895 34.9908 109.889 37.3379C109.886 38.8358 109.882 40.3336 109.884 41.8315L109.889 43.1782C109.889 43.4679 109.818 43.7522 109.679 44.0037C106.407 49.9332 96.5695 65.0379 75.9496 77.2232C75.6964 77.3727 75.4147 77.4474 75.133 77.4474L75.1348 77.4455ZM69.8211 67.999C71.3546 70.1511 73.1751 72.0863 75.256 73.7755C94.1195 62.361 103.34 48.5848 106.626 42.7463L106.623 41.8388C106.623 40.3318 106.624 38.8303 106.628 37.3288C106.633 35.4172 106.637 33.5057 106.632 31.5941C105.92 31.421 104.888 31.1896 103.556 30.9454C100.603 36.762 88.2888 59.1775 69.8193 67.999H69.8211Z" fill="white"/>
<path d="M17.7653 60.5369C16.8649 60.5369 16.1338 59.7916 16.1338 58.8695V55.2669C16.1338 41.181 27.346 29.7227 41.1294 29.7227H48.1798C54.0249 29.7227 59.713 31.8292 64.1957 35.6577C64.8876 36.2481 64.9785 37.2996 64.4008 38.0066C63.8213 38.7136 62.7942 38.8066 62.1041 38.2162C58.208 34.8887 53.2635 33.0555 48.1798 33.0555H41.1294C29.1451 33.0555 19.3951 43.0196 19.3951 55.2669V58.8695C19.3951 59.7897 18.6658 60.5369 17.7636 60.5369H17.7653Z" fill="white"/>
<path d="M76.9235 99.0082H12.3874C11.4869 99.0082 10.7559 98.2629 10.7559 97.3408V58.8695C10.7559 57.9493 11.4852 57.2021 12.3874 57.2021H17.7653C18.6657 57.2021 19.3968 57.9474 19.3968 58.8695C19.3968 59.7916 18.6675 60.5369 17.7653 60.5369H14.0172V95.6753H75.2919V77.0373C75.2919 76.1171 76.0212 75.37 76.9235 75.37C77.8257 75.37 78.555 76.1153 78.555 77.0373V97.3408C78.555 98.261 77.8257 99.0082 76.9235 99.0082Z" fill="white"/>
<path d="M63.832 60.5369H17.7653C16.8649 60.5369 16.1338 59.7916 16.1338 58.8695C16.1338 57.9474 16.8631 57.2021 17.7653 57.2021H63.8337C64.7342 57.2021 65.4653 57.9474 65.4653 58.8695C65.4653 59.7916 64.736 60.5369 63.8337 60.5369H63.832Z" fill="white"/>
</g>
<defs>
<clipPath id="clip0_88_712">
<rect width="110" height="110" fill="white"/>
</clipPath>
</defs>
</svg>
