<svg width="96" height="111" viewBox="0 0 96 111" fill="none" xmlns="http://www.w3.org/2000/svg">
<path fill-rule="evenodd" clip-rule="evenodd" d="M87.4693 78.1145L87.4693 32.3488L47.8322 9.46302L8.19512 32.3488L8.19512 78.1145L47.8322 101L87.4693 78.1145ZM47.8322 110.463L95.6644 82.8458L95.6644 27.6175L47.8322 -4.02378e-05L-3.62131e-06 27.6175L-1.2072e-06 82.8458L47.8322 110.463Z" fill="white"/>
<path d="M36.0538 29.784V64.7653H28.5389V38.3313L20.4238 40.8042V34.994L35.3095 29.784H36.0538Z" fill="white"/>
<path d="M70.9391 44.1655V50.3838C70.9391 52.9448 70.651 55.1617 70.0747 57.0344C69.5145 58.9071 68.6982 60.4517 67.6258 61.6681C66.5694 62.8846 65.3049 63.7889 63.8324 64.3812C62.3758 64.9574 60.7592 65.2455 58.9825 65.2455C57.558 65.2455 56.2295 65.0614 54.997 64.6933C53.7645 64.3252 52.6521 63.7569 51.6597 62.9886C50.6834 62.2043 49.843 61.228 49.1388 60.0595C48.4345 58.8911 47.8903 57.4986 47.5061 55.8819C47.138 54.2653 46.9539 52.4326 46.9539 50.3838V44.1655C46.9539 41.5725 47.234 39.3476 47.7943 37.4909C48.3705 35.6342 49.1948 34.0976 50.2672 32.8812C51.3396 31.6647 52.6041 30.7684 54.0606 30.1921C55.5332 29.6159 57.1578 29.3278 58.9345 29.3278C60.359 29.3278 61.6795 29.5119 62.896 29.88C64.1285 30.2482 65.2409 30.8164 66.2333 31.5847C67.2257 32.353 68.066 33.3213 68.7542 34.4898C69.4585 35.6582 69.9947 37.0508 70.3629 38.6674C70.747 40.268 70.9391 42.1007 70.9391 44.1655ZM63.4482 51.3202V43.1811C63.4482 41.9806 63.3762 40.9402 63.2321 40.0599C63.1041 39.1636 62.912 38.4033 62.6559 37.779C62.4158 37.1548 62.1117 36.6506 61.7436 36.2665C61.3754 35.8823 60.9513 35.6022 60.4711 35.4261C60.0069 35.2341 59.4947 35.138 58.9345 35.138C58.2302 35.138 57.598 35.2821 57.0378 35.5702C56.4776 35.8583 56.0054 36.3145 55.6212 36.9387C55.2371 37.547 54.941 38.3713 54.7329 39.4117C54.5408 40.4361 54.4448 41.6925 54.4448 43.1811V51.3202C54.4448 52.5207 54.5088 53.5691 54.6369 54.4654C54.7809 55.3617 54.973 56.13 55.2131 56.7703C55.4692 57.3945 55.7813 57.9067 56.1494 58.3069C56.5176 58.691 56.9417 58.9711 57.4219 59.1472C57.9021 59.3232 58.4223 59.4113 58.9825 59.4113C59.6868 59.4113 60.311 59.2752 60.8552 59.0031C61.3994 58.715 61.8636 58.2588 62.2478 57.6346C62.6479 56.9944 62.944 56.154 63.1361 55.1136C63.3442 54.0732 63.4482 52.8088 63.4482 51.3202Z" fill="white"/>
<path d="M34.4987 74.7639V83.8873H31.1694V72.3416H34.296L34.4987 74.7639ZM34.0719 77.709L33.2289 77.7303C33.2289 76.9193 33.3249 76.1759 33.517 75.5001C33.7162 74.8172 34.0043 74.2232 34.3813 73.7181C34.7584 73.213 35.2243 72.8218 35.7792 72.5443C36.3412 72.2669 36.9885 72.1282 37.7213 72.1282C38.2335 72.1282 38.6994 72.2064 39.1191 72.3629C39.5388 72.5123 39.8981 72.7506 40.1969 73.0779C40.5028 73.398 40.7375 73.8177 40.9011 74.337C41.0648 74.8492 41.1466 75.4646 41.1466 76.1831V83.8873H37.8173V76.5885C37.8173 76.0764 37.7533 75.6887 37.6252 75.4254C37.5043 75.1551 37.3264 74.9702 37.0917 74.8706C36.8569 74.771 36.5759 74.7212 36.2487 74.7212C35.893 74.7212 35.5764 74.7994 35.299 74.9559C35.0287 75.1053 34.801 75.3152 34.6161 75.5855C34.4311 75.8558 34.2924 76.1724 34.1999 76.5352C34.1146 76.898 34.0719 77.2893 34.0719 77.709ZM40.8051 77.5382L39.7487 77.6236C39.7487 76.8411 39.8412 76.1155 40.0261 75.4468C40.2111 74.7781 40.4885 74.1983 40.8585 73.7075C41.2284 73.2095 41.6872 72.8218 42.235 72.5443C42.7899 72.2669 43.4337 72.1282 44.1664 72.1282C44.707 72.1282 45.1979 72.2064 45.6389 72.3629C46.0871 72.5194 46.4713 72.772 46.7914 73.1206C47.1186 73.4691 47.3712 73.928 47.549 74.4971C47.7269 75.0591 47.8158 75.7491 47.8158 76.5672V83.8873H44.4652V76.5672C44.4652 76.0621 44.4011 75.678 44.2731 75.4148C44.1522 75.1516 43.9743 74.9702 43.7396 74.8706C43.5119 74.771 43.238 74.7212 42.9179 74.7212C42.5622 74.7212 42.2528 74.7959 41.9896 74.9453C41.7263 75.0875 41.5058 75.2867 41.328 75.5428C41.1501 75.7918 41.0185 76.087 40.9332 76.4285C40.8478 76.77 40.8051 77.1399 40.8051 77.5382Z" fill="white"/>
<path d="M53.5566 72.3416V83.8873H50.2167V72.3416H53.5566ZM50.0139 69.3538C50.0139 68.8701 50.1847 68.4752 50.5261 68.1693C50.8676 67.8563 51.3158 67.6998 51.8707 67.6998C52.4255 67.6998 52.8737 67.8563 53.2152 68.1693C53.5637 68.4752 53.738 68.8701 53.738 69.3538C53.738 69.8304 53.5637 70.2252 53.2152 70.5382C52.8737 70.8441 52.4255 70.9971 51.8707 70.9971C51.3158 70.9971 50.8676 70.8441 50.5261 70.5382C50.1847 70.2252 50.0139 69.8304 50.0139 69.3538Z" fill="white"/>
<path d="M59.2228 74.8065V83.8873H55.8828V72.3416H59.02L59.2228 74.8065ZM58.7853 77.709L57.953 77.7303C57.953 76.8624 58.0597 76.0835 58.2731 75.3934C58.4865 74.7034 58.7888 74.1165 59.1801 73.6328C59.5785 73.1419 60.0515 72.7684 60.5993 72.5123C61.1542 72.2562 61.766 72.1282 62.4347 72.1282C62.9753 72.1282 63.4697 72.2064 63.9179 72.3629C64.3661 72.5194 64.7502 72.772 65.0703 73.1206C65.3976 73.462 65.6466 73.9173 65.8173 74.4864C65.988 75.0484 66.0734 75.742 66.0734 76.5672V83.8873H62.7228V76.5565C62.7228 76.0728 62.6552 75.6993 62.52 75.4361C62.3849 75.1729 62.1857 74.9879 61.9225 74.8812C61.6664 74.7745 61.3534 74.7212 60.9835 74.7212C60.5922 74.7212 60.2578 74.7994 59.9804 74.9559C59.703 75.1053 59.4753 75.3152 59.2975 75.5855C59.1196 75.8558 58.988 76.1724 58.9027 76.5352C58.8244 76.898 58.7853 77.2893 58.7853 77.709Z" fill="white"/>
</svg>
