<svg width="110" height="110" viewBox="0 0 110 110" fill="none" xmlns="http://www.w3.org/2000/svg">
<g clip-path="url(#clip0_81_4859)">
<path d="M87.679 110H1.63154C0.731075 110 0 109.255 0 108.333V97.3408C0 96.4206 0.729292 95.6735 1.63154 95.6735H87.679C88.5795 95.6735 89.3106 96.4188 89.3106 97.3408V108.333C89.3106 109.253 88.5813 110 87.679 110ZM3.26309 106.667H86.0493V99.0082H3.26131V106.667H3.26309Z" fill="white"/>
<path d="M30.6713 99.0082H18.3981C17.4977 99.0082 16.7666 98.2629 16.7666 97.3408V75.3098C16.7666 71.3865 19.8906 68.194 23.7296 68.194H25.3398C29.1788 68.194 32.3028 71.3865 32.3028 75.3098V97.3408C32.3028 98.2611 31.5735 99.0082 30.6713 99.0082ZM20.0297 95.6753H29.0415V75.3117C29.0415 73.227 27.3814 71.5287 25.3398 71.5287H23.7296C21.6898 71.5287 20.0279 73.2252 20.0279 75.3117V95.6753H20.0297Z" fill="white"/>
<path d="M50.7919 99.0082H38.5188C37.6183 99.0082 36.8872 98.2629 36.8872 97.3408V75.3098C36.8872 71.3865 40.0112 68.194 43.8502 68.194H45.4604C49.2994 68.194 52.4234 71.3865 52.4234 75.3098V97.3408C52.4234 98.2611 51.6941 99.0082 50.7919 99.0082ZM40.1485 95.6753H49.1603V75.3117C49.1603 73.227 47.5003 71.5287 45.4586 71.5287H43.8485C41.8086 71.5287 40.1467 73.2252 40.1467 75.3117V95.6753H40.1485Z" fill="white"/>
<path d="M70.9108 99.0082H58.6376C57.7372 99.0082 57.0061 98.2629 57.0061 97.3408V75.3098C57.0061 71.3865 60.1301 68.194 63.9691 68.194H65.5775C69.4165 68.194 72.5405 71.3865 72.5405 75.3098V97.3408C72.5405 98.2611 71.8113 99.0082 70.909 99.0082H70.9108ZM60.2692 95.6753H69.281V75.3117C69.281 73.227 67.6209 71.5287 65.5793 71.5287H63.9709C61.9311 71.5287 60.2692 73.2252 60.2692 75.3117V95.6753Z" fill="white"/>
<path d="M48.185 9.71804H41.1667C40.5872 9.71804 40.0522 9.40461 39.7598 8.89256C39.4674 8.38233 39.462 7.75001 39.7455 7.23432L43.2547 0.849159C43.5436 0.322529 44.0874 -0.00183105 44.6776 -0.00183105C45.2678 -0.00183105 45.8099 0.322529 46.1005 0.847337L49.6097 7.23249C49.8932 7.74819 49.8879 8.38051 49.5954 8.89074C49.303 9.40097 48.7663 9.71622 48.1886 9.71622L48.185 9.71804ZM43.9537 6.38515H45.398L44.6758 5.06949L43.9537 6.38515Z" fill="white"/>
<path d="M48.185 26.9802C47.2845 26.9802 46.5535 26.2349 46.5535 25.3128V9.71802H42.7982V25.2928C42.7982 26.213 42.069 26.9601 41.1667 26.9601C40.2644 26.9601 39.5352 26.2148 39.5352 25.2928V8.05249C39.5352 7.13225 40.2644 6.38513 41.1667 6.38513H48.185C49.0855 6.38513 49.8166 7.13043 49.8166 8.05249V25.3146C49.8166 26.2349 49.0873 26.982 48.185 26.982V26.9802Z" fill="white"/>
<path d="M52.8816 33.5421C52.0756 33.5421 51.3748 32.9317 51.2661 32.0934C50.8292 28.715 47.9869 26.1693 44.6525 26.1693C41.3181 26.1693 38.4758 28.7168 38.039 32.0934C37.9213 33.0064 37.1046 33.6569 36.2095 33.5276C35.3161 33.4073 34.6885 32.5691 34.8062 31.6579C35.4552 26.6285 39.6883 22.8364 44.6525 22.8364C49.6167 22.8364 53.848 26.6285 54.4988 31.6561C54.6165 32.5691 53.9889 33.4055 53.0955 33.5276C53.0224 33.5385 52.9511 33.5421 52.8798 33.5421H52.8816Z" fill="white"/>
<path d="M85.7052 82.772C85.55 82.772 85.3967 82.7501 85.2469 82.7046C74.9477 79.6195 66.9183 72.274 63.2184 62.5505C61.2249 57.3097 61.3497 51.6061 61.4709 46.0901C61.4977 44.8856 61.5244 43.692 61.5262 42.5203C61.5298 40.7764 61.5262 39.0344 61.5209 37.2905C61.5155 34.958 61.5084 32.6274 61.5209 30.2949C61.5244 29.5569 62.0023 28.91 62.6959 28.7041C63.0472 28.5984 71.4706 26.1438 85.7052 26.1438C99.9397 26.1438 108.392 28.6057 108.73 28.7095C109.415 28.9209 109.884 29.5642 109.889 30.2949C109.904 32.631 109.897 34.9653 109.889 37.3014C109.884 39.0398 109.881 40.7801 109.884 42.5185C109.886 43.692 109.913 44.8874 109.939 46.0938C110.061 51.6079 110.185 57.3115 108.192 62.5505C104.492 72.2722 96.4627 79.6177 86.1652 82.7046C86.0154 82.7501 85.8603 82.772 85.707 82.772H85.7052ZM64.7768 31.6051C64.7715 33.4966 64.7768 35.3881 64.7822 37.2814C64.7875 39.0289 64.7911 40.7783 64.7875 42.5258C64.7857 43.7194 64.759 44.9366 64.7322 46.1648C64.6181 51.3546 64.4987 56.7229 66.2586 61.3442C69.5342 69.9506 76.606 76.4962 85.7052 79.3662C94.8044 76.4962 101.876 69.9506 105.152 61.3442C106.91 56.7229 106.792 51.3582 106.678 46.1703C106.651 44.9403 106.625 43.723 106.623 42.5276C106.619 40.7837 106.623 39.038 106.628 37.2941C106.634 35.3954 106.639 33.4966 106.634 31.5978C103.952 30.9472 96.6766 29.4785 85.707 29.4785C74.7373 29.4785 67.5192 30.9582 64.7786 31.6069L64.7768 31.6051Z" fill="white"/>
<path d="M85.705 82.772C85.5498 82.772 85.3965 82.7501 85.2467 82.7046C81.1973 81.4909 77.4688 79.6122 74.1647 77.1194C73.7225 76.7859 73.4746 76.2465 73.5049 75.6853C73.5352 75.124 73.8402 74.6174 74.318 74.335C94.2425 62.5614 103.698 48.0545 106.838 42.3655C107.202 41.7076 107.947 41.3814 108.666 41.571C109.381 41.7586 109.882 42.4147 109.889 43.1691C109.898 44.1312 109.92 45.1061 109.941 46.0883C110.06 51.6061 110.185 57.3097 108.192 62.5505C104.492 72.2722 96.4625 79.6177 86.165 82.7046C86.0152 82.7501 85.8601 82.772 85.7067 82.772H85.705ZM78.1731 75.8729C80.4965 77.349 83.0196 78.5189 85.705 79.3644C94.8042 76.4943 101.876 69.9488 105.152 61.3423C106.612 57.5029 106.78 53.1513 106.728 48.8126C102.051 55.7808 93.1352 66.5303 78.1713 75.8729H78.1731Z" fill="white"/>
<path d="M75.2881 49.423C74.8549 49.423 74.4412 49.2481 74.1345 48.9346L69.9103 44.6177C69.2737 43.9672 69.2737 42.9121 69.9103 42.2616C70.5469 41.611 71.5811 41.611 72.2158 42.2616L75.2864 45.3995L83.897 36.5998C84.5336 35.9493 85.566 35.9493 86.2026 36.5998C86.8391 37.2504 86.8391 38.3055 86.2026 38.956L76.44 48.9346C76.1333 49.2481 75.7197 49.423 75.2864 49.423H75.2881Z" fill="white"/>
<path d="M75.135 77.4455C74.7926 77.4455 74.4503 77.3344 74.1632 77.1175L74.0669 77.0447C70.8199 74.5755 68.1042 71.5888 65.9912 68.1648C65.7345 67.7494 65.6703 67.2373 65.8183 66.769C65.9645 66.3007 66.3086 65.9217 66.7526 65.734C86.752 57.3607 99.7633 31.3026 101.183 28.3597C101.5 27.7018 102.201 27.3337 102.907 27.4504C106.644 28.0717 108.645 28.6822 108.729 28.7077C109.413 28.9191 109.884 29.5623 109.888 30.2949C109.902 32.6419 109.895 34.9908 109.89 37.3379C109.886 38.8358 109.882 40.3336 109.884 41.8315L109.89 43.1782C109.89 43.4679 109.818 43.7522 109.679 44.0037C106.407 49.9332 96.5698 65.0379 75.9499 77.2232C75.6967 77.3727 75.415 77.4474 75.1332 77.4474L75.135 77.4455ZM69.8213 67.999C71.3548 70.1511 73.1754 72.0863 75.2563 73.7755C94.1198 62.361 103.34 48.5848 106.626 42.7463L106.623 41.8388C106.623 40.3318 106.625 38.8303 106.628 37.3288C106.634 35.4172 106.637 33.5057 106.632 31.5941C105.92 31.421 104.888 31.1896 103.556 30.9454C100.603 36.762 88.289 59.1775 69.8196 67.999H69.8213Z" fill="white"/>
<path d="M17.7651 60.5369C16.8646 60.5369 16.1335 59.7916 16.1335 58.8695V55.2669C16.1335 41.181 27.3457 29.7227 41.1292 29.7227H48.1796C54.0246 29.7227 59.7127 31.8292 64.1955 35.6577C64.8873 36.2481 64.9782 37.2996 64.4005 38.0066C63.821 38.7136 62.7939 38.8066 62.1039 38.2162C58.2078 34.8887 53.2632 33.0555 48.1796 33.0555H41.1292C29.1449 33.0555 19.3949 43.0196 19.3949 55.2669V58.8695C19.3949 59.7897 18.6656 60.5369 17.7633 60.5369H17.7651Z" fill="white"/>
<path d="M76.9232 99.0082H12.3872C11.4867 99.0082 10.7556 98.2629 10.7556 97.3408V58.8695C10.7556 57.9493 11.4849 57.2021 12.3872 57.2021H17.765C18.6655 57.2021 19.3966 57.9474 19.3966 58.8695C19.3966 59.7916 18.6673 60.5369 17.765 60.5369H14.0169V95.6753H75.2917V77.0373C75.2917 76.1171 76.021 75.37 76.9232 75.37C77.8255 75.37 78.5548 76.1153 78.5548 77.0373V97.3408C78.5548 98.261 77.8255 99.0082 76.9232 99.0082Z" fill="white"/>
<path d="M63.8317 60.5369H17.7651C16.8646 60.5369 16.1335 59.7916 16.1335 58.8695C16.1335 57.9474 16.8628 57.2021 17.7651 57.2021H63.8335C64.734 57.2021 65.465 57.9474 65.465 58.8695C65.465 59.7916 64.7357 60.5369 63.8335 60.5369H63.8317Z" fill="white"/>
</g>
<defs>
<clipPath id="clip0_81_4859">
<rect width="110" height="110" fill="white"/>
</clipPath>
</defs>
</svg>
