<svg width="110" height="110" viewBox="0 0 110 110" fill="none" xmlns="http://www.w3.org/2000/svg">
<path d="M63.3151 102.338C63.2293 102.338 63.1434 102.329 63.0576 102.315L30.7262 96.3104C29.9198 96.4664 26.1955 97.3943 21.2823 101.853C20.8836 102.217 20.3651 102.344 19.8716 102.196C19.3817 102.051 18.9776 101.649 18.7756 101.108L10.4527 78.7736C10.1309 77.9102 10.4008 76.9032 11.0856 76.4018L28.3214 63.8645C28.3911 63.8146 28.4644 63.7688 28.5395 63.7314C37.0484 59.4517 45.3123 64.239 46.0274 64.6738C49.7428 66.7128 57.1109 68.6185 57.186 68.6372L69.8536 71.3981C72.0742 71.8829 74.0338 73.2352 75.3694 75.2055C76.1937 76.4205 76.7229 77.7791 76.9339 79.1855L99.3779 71.1547C103.869 69.4923 108.398 71.8163 109.666 76.4517C110.955 81.1953 108.4 86.3842 103.971 88.0216L65.7342 102.115C65.6054 102.163 65.4731 102.19 65.339 102.2L63.4152 102.336C63.383 102.338 63.3508 102.34 63.3169 102.34L63.3151 102.338ZM30.7459 92.4843C30.8317 92.4843 30.9175 92.4926 31.0033 92.5072L63.3955 98.522L64.9385 98.4138L102.981 84.391C105.691 83.3882 107.291 80.3423 106.548 77.6002C105.836 75.0016 103.115 73.7658 100.354 74.7852L75.9523 83.5172C75.7806 83.6025 75.5965 83.6545 75.4016 83.667C74.5613 83.7128 73.8282 83.0491 73.6834 82.1024C73.6333 81.7779 73.6548 81.4554 73.7388 81.16C73.8711 79.9262 73.5439 78.6592 72.8001 77.5627C71.9544 76.3144 70.6939 75.4531 69.2493 75.1389L56.5298 72.3656C56.1597 72.2719 48.636 70.3266 44.5953 68.0942C44.572 68.0817 44.5488 68.0693 44.5273 68.0547C44.4576 68.011 37.1521 63.6252 29.9467 67.1705L14.0125 78.7611L20.9587 97.4027C26.4745 92.9607 30.4205 92.5093 30.601 92.4905C30.6493 92.4864 30.6958 92.4843 30.7441 92.4843H30.7459Z" fill="white"/>
<path d="M68.7701 89.326C68.1819 89.326 67.5883 89.2636 66.9964 89.1325L49.3655 85.2981C48.4769 85.1046 47.8922 84.1101 48.0585 83.0781C48.2248 82.0441 49.0777 81.3659 49.9663 81.5573L67.5972 85.3917C69.0419 85.7079 70.4847 85.4354 71.6612 84.6281C72.7661 83.8708 73.4921 82.7307 73.703 81.4158C73.8693 80.3818 74.7222 79.7056 75.6126 79.8949C76.4994 80.0884 77.0858 81.0829 76.9195 82.1169C76.5316 84.5262 75.255 86.5838 73.3222 87.907C71.958 88.8412 70.3864 89.3239 68.7683 89.3239L68.7701 89.326Z" fill="white"/>
<path d="M13.7104 110C13.1025 110 12.5178 109.605 12.2371 108.925L0.163095 79.8431C-0.0264276 79.3874 -0.0514589 78.8652 0.0915768 78.3888C0.234612 77.9123 0.534987 77.5212 0.92476 77.3007L10.3562 71.9995C10.7459 71.7789 11.1965 71.7498 11.6059 71.9163C12.0154 72.0827 12.3515 72.4322 12.541 72.8858L24.615 101.97C24.8046 102.425 24.8296 102.947 24.6866 103.424C24.5435 103.9 24.2431 104.291 23.8534 104.512L14.422 109.813C14.1931 109.942 13.9499 110.002 13.7121 110.002L13.7104 110ZM3.81944 79.9013L14.4702 105.556L20.9551 101.911L10.3043 76.2562L3.81944 79.9013Z" fill="white"/>
<path d="M13.7104 110C13.1025 110 12.5178 109.605 12.2371 108.925L0.163095 79.8431C-0.0264276 79.3874 -0.0514589 78.8652 0.0915768 78.3888C0.234612 77.9123 0.534987 77.5212 0.92476 77.3007L10.3562 71.9995C10.7459 71.7789 11.1965 71.7498 11.6059 71.9163C12.0154 72.0827 12.3515 72.4322 12.541 72.8858L24.615 101.97C24.8046 102.425 24.8296 102.947 24.6866 103.424C24.5435 103.9 24.2431 104.291 23.8534 104.512L14.422 109.813C14.1931 109.942 13.9499 110.002 13.7121 110.002L13.7104 110ZM3.81944 79.9013L14.4702 105.556L20.9551 101.911L10.3043 76.2562L3.81944 79.9013Z" fill="white"/>
<path d="M53.0505 49.5858C48.552 49.5858 42.5964 48.4665 37.0573 43.8789C28.8077 37.0548 21.6649 14.8097 21.3645 13.8673C21.1803 13.2868 21.2501 12.6377 21.5505 12.1279C21.8526 11.6182 22.3461 11.3103 22.8789 11.304C23.6459 11.2936 41.9795 11.1397 53.0058 18.9417C63.8372 26.6043 62.0152 42.3165 61.1767 47.0434C61.1231 47.6135 60.8477 48.1295 60.4311 48.4374C60.2309 48.5893 60.0002 48.6933 59.7571 48.7307C58.7075 49.0199 56.2473 49.5858 53.0487 49.5858H53.0505ZM25.323 15.1676C27.4471 21.1991 33.072 35.9147 38.9543 40.7789C46.4959 47.0247 54.9529 45.9574 58.1425 45.2438C58.881 40.2463 59.6641 28.1064 51.309 22.1935C43.3223 16.5428 30.5939 15.3965 25.323 15.1655V15.1676Z" fill="white"/>
<path d="M69.2779 48.0901C65.9934 48.0901 63.4885 47.6074 62.371 47.3432C61.7435 47.2891 61.1892 46.821 60.9675 46.1261C60.921 45.9929 60.8888 45.8514 60.8692 45.7079C59.673 40.0155 56.8159 20.8206 69.7749 10.9172C83.0558 0.762155 105.677 0.0277282 106.635 0.00068134C107.164 -0.0159629 107.672 0.273231 107.989 0.770478C108.305 1.26772 108.395 1.91477 108.226 2.50148C107.89 3.68114 99.8875 31.4854 90.0127 40.2735C82.8359 46.6649 74.9099 48.088 69.2779 48.088V48.0901ZM63.8443 43.7875C67.7456 44.5365 78.6181 45.633 88.0245 37.2526C95.4284 30.6636 102.074 11.0941 104.316 3.95161C98.1747 4.42805 81.6415 6.39623 71.5682 14.0984C61.0569 22.1334 62.7215 37.7457 63.8443 43.7875Z" fill="white"/>
<path d="M61.0626 61.5884C60.292 61.5884 59.6072 60.9518 59.457 60.0384C59.4427 59.9573 58.1179 51.8245 57.2006 47.8673C57.1738 47.7508 57.1577 47.6322 57.1488 47.5136C57.0862 47.2952 56.9932 46.9893 56.8734 46.6128C55.815 43.3276 52.7129 35.147 46.8323 30.2743C37.2722 22.36 23.7911 15.7044 22.2856 14.972L23.5301 11.4518L22.8971 13.2057L23.5479 11.4601C25.0874 12.2091 38.8796 19.0187 48.7276 27.1723C55.3448 32.6524 58.7723 41.6611 59.938 45.2812C60.2455 46.2466 60.3903 46.8104 60.3903 46.8104C60.4333 46.9789 60.4565 47.1495 60.4583 47.3222C61.3952 51.527 62.6145 59.0023 62.6682 59.3311C62.8362 60.363 62.2534 61.3596 61.3648 61.5551C61.2629 61.578 61.1592 61.5884 61.059 61.5884H61.0626Z" fill="white"/>
<path d="M61.066 61.5883C60.9784 61.5883 60.889 61.5799 60.7978 61.5633C59.9074 61.3927 59.303 60.4128 59.4497 59.3767C59.4997 59.0271 60.6369 51.0046 61.6345 45.8844C61.6274 45.6951 61.6453 45.5016 61.6882 45.3144C61.6953 45.2852 61.8544 44.5945 62.1834 43.4419C63.4833 38.95 67.3559 27.7588 75.2426 20.7495C87.0913 10.22 103.828 1.17172 105.698 0.175148C106.517 -0.261763 107.501 0.150182 107.876 1.10723C108.253 2.06219 107.903 3.18776 107.082 3.62467C107.082 3.62467 107.063 3.63507 107.061 3.63507C105.226 4.61292 88.7952 13.4947 77.229 23.7725C70.0593 30.1452 66.487 40.4958 65.2855 44.6507C65.1389 45.1666 65.0298 45.5765 64.9565 45.8595C64.9565 45.9905 64.944 46.1216 64.919 46.2506C63.9249 51.2064 62.6894 59.9072 62.6769 59.9946C62.5446 60.9267 61.8509 61.5883 61.066 61.5883Z" fill="white"/>
</svg>
