<svg width="108" height="101" viewBox="0 0 108 101" fill="none" xmlns="http://www.w3.org/2000/svg">
<g clip-path="url(#clip0_66_50700)">
<path d="M38.8836 35.7568C38.9621 35.7568 39.0351 35.7512 39.1137 35.7456C40.8033 35.6277 42.1392 34.2244 42.1392 32.5067C42.1392 31.0136 41.1345 29.7618 39.7648 29.3745C39.4842 29.2959 39.1923 29.251 38.8836 29.251C37.0873 29.251 35.6279 30.7049 35.6279 32.5067C35.6279 34.3086 37.0817 35.7568 38.8836 35.7568Z" fill="white"/>
<path d="M57.9517 49.8573C56.1555 49.8573 54.696 51.3111 54.696 53.113C54.696 54.1514 55.1844 55.072 55.9422 55.667C56.4979 56.1048 57.1939 56.3631 57.9517 56.3631C59.748 56.3631 61.2074 54.9092 61.2074 53.113C61.2074 52.6527 61.112 52.2205 60.9436 51.8276C60.444 50.6712 59.2933 49.8629 57.9573 49.8629L57.9517 49.8573Z" fill="white"/>
<path d="M57.9517 70.2671C56.1555 70.2671 54.696 71.7209 54.696 73.5228C54.696 75.3246 56.1499 76.7728 57.9517 76.7728C59.7536 76.7728 61.2074 75.319 61.2074 73.5228C61.2074 71.7265 59.7536 70.2671 57.9517 70.2671Z" fill="white"/>
<path d="M0.539418 74.0784C0.584324 76.9131 1.72943 79.5626 3.76704 81.5384L7.67386 77.5081C6.71399 76.5763 6.17512 75.3302 6.15267 73.9886C6.13021 72.6527 6.6354 71.3841 7.56159 70.4242C9.48132 68.4427 12.6584 68.3922 14.6399 70.312C16.6214 72.2317 16.6719 75.4088 14.7522 77.3903L18.7825 81.2971C22.8577 77.0928 22.7567 70.3569 18.5523 66.2816C17.2276 64.9962 15.6503 64.1318 13.9831 63.6715L13.8989 60.6459C16.7224 60.3877 19.4617 59.1079 21.4993 56.8289L29.515 47.6962L25.2938 43.997L17.3006 53.113C15.1002 55.5716 11.3112 55.7793 8.85264 53.5732C6.39404 51.3729 6.18634 47.5839 8.40919 45.1029L23.913 27.4324C24.6259 26.6353 25.5128 26.0796 26.4614 25.7596C23.913 30.5196 24.6371 36.582 28.6506 40.5898L44.6315 56.5707V74.5892C44.6315 77.6765 45.6699 80.5224 47.4156 82.807H39.1979V88.4203H72.5462V92.1531C72.5462 93.6574 71.3225 94.8811 69.8181 94.8811C68.3138 94.8811 67.0901 93.6574 67.0901 92.1531H61.4768C61.4768 96.7503 65.2209 100.494 69.8181 100.494C74.4154 100.494 78.1594 96.7503 78.1594 92.1531V87.1012H78.1313V82.8014H68.9481C70.6938 80.5224 71.7322 77.6709 71.7322 74.5836V52.5573C71.7322 47.1124 68.5046 42.4141 63.8625 40.2586C63.7614 40.1464 63.666 40.0285 63.5593 39.9218L46.4333 22.7958C44.0589 20.4214 40.8987 19.1135 37.5419 19.1135C35.5885 19.1135 33.7081 19.5682 32.0017 20.4046C27.7581 19.0125 22.8914 20.1407 19.7143 23.6939L4.21048 41.3644C-0.0555862 46.1245 0.342955 53.4722 5.1086 57.7383C6.06847 58.5971 7.13498 59.2595 8.25763 59.7422L8.36428 63.6659C6.58488 64.1486 4.90652 65.086 3.53128 66.5062C1.56103 68.5606 0.494512 71.2438 0.539418 74.0784ZM37.5363 24.7436C37.6374 24.7436 37.7384 24.7548 37.8394 24.7605C39.5178 24.8334 41.1737 25.5014 42.4535 26.7812L55.0609 39.3886C50.211 40.5337 46.3604 44.2946 45.0805 49.0939L32.6135 36.6269C29.9753 33.9886 29.9079 29.7506 32.4002 27.0226C32.4732 26.944 32.5349 26.8598 32.6135 26.7868C33.9719 25.4284 35.7513 24.7492 37.5363 24.7492V24.7436ZM66.1134 53.983V74.5892C66.1134 78.9676 62.5546 82.5264 58.1762 82.5264C53.7979 82.5264 50.2391 78.9676 50.2391 74.5892V52.5629C50.2391 48.1845 53.7979 44.6257 58.1762 44.6257C58.9677 44.6257 59.7311 44.7436 60.4552 44.9625C61.9989 45.4284 63.346 46.349 64.3396 47.5727C65.4454 48.9367 66.1134 50.6712 66.1134 52.5629V53.9774V53.983Z" fill="white"/>
<path d="M47.5223 100.5C52.1196 100.5 55.8636 96.7559 55.8636 92.1587H50.2504C50.2504 93.663 49.0267 94.8867 47.5223 94.8867C46.018 94.8867 44.7943 93.663 44.7943 92.1587H39.181C39.181 96.7559 42.9251 100.5 47.5223 100.5Z" fill="white"/>
<path d="M107.461 0.5H37.3006V15.1281H42.9138V6.11325H101.847V41.8977H74.494V47.5109H107.461V0.5Z" fill="white"/>
<path d="M74.522 38.1649V34.4602C75.8804 34.1851 77.1378 33.6462 78.2548 32.9053L80.8762 35.5267L83.9017 32.5011L81.2804 29.8798C82.0213 28.7627 82.5546 27.4997 82.8352 26.1469H86.54V21.8696H82.8352C82.5602 20.5112 82.0213 19.2539 81.2804 18.1368L83.9017 15.5155L80.8762 12.4899L78.2548 15.1113C77.1378 14.3703 75.8748 13.8371 74.522 13.5564V9.85168H70.2447V13.5564C68.8863 13.8315 67.6289 14.3703 66.5119 15.1113L63.8905 12.4899L60.865 15.5155L63.4864 18.1368C62.7454 19.2539 62.2122 20.5169 61.9315 21.8696H58.2267V26.1469H61.9315C62.2065 27.5053 62.7454 28.7627 63.4864 29.8798L60.865 32.5011L63.8905 35.5267L66.5119 32.9053C67.6289 33.6462 68.8919 34.1795 70.2447 34.4602V38.1649H74.522ZM66.3098 24.0083C66.3098 20.6516 69.0266 17.9348 72.3834 17.9348C75.7401 17.9348 78.4569 20.6516 78.4569 24.0083C78.4569 27.365 75.7401 30.0818 72.3834 30.0818C69.0266 30.0818 66.3098 27.365 66.3098 24.0083Z" fill="white"/>
<path d="M30.8285 84.5078H5.00757V100.5H30.8341V84.5078H30.8285ZM25.2153 94.8867H10.6152V90.1211H25.2153V94.8867Z" fill="white"/>
</g>
<defs>
<clipPath id="clip0_66_50700">
<rect width="106.921" height="100" fill="white" transform="translate(0.539429 0.5)"/>
</clipPath>
</defs>
</svg>
