<svg width="100" height="101" viewBox="0 0 100 101" fill="none" xmlns="http://www.w3.org/2000/svg">
<g clip-path="url(#clip0_66_50718)">
<path d="M47.3273 77.3367V79.8515C42.8273 81.0394 39.4991 85.1327 39.4991 89.9965C39.4991 95.786 44.2131 100.5 50.0026 100.5C55.7922 100.5 60.5062 95.786 60.5062 89.9965C60.5062 85.1327 57.178 81.0394 52.678 79.8515V77.3367H47.3273ZM55.1554 89.9965C55.1554 92.8378 52.8439 95.1493 50.0026 95.1493C47.1614 95.1493 44.8499 92.8378 44.8499 89.9965C44.8499 87.1553 47.1614 84.8438 50.0026 84.8438C52.8439 84.8438 55.1554 87.1553 55.1554 89.9965Z" fill="white"/>
<path d="M89.4965 39.9991C84.6327 39.9991 80.5394 43.3273 79.3515 47.8272H74.4395C73.9205 43.049 72.0263 38.6828 69.1637 35.1246L72.647 31.6412C74.2736 32.5883 76.0982 33.0752 77.9282 33.0752C80.6196 33.0752 83.3057 32.0532 85.355 30.0039C87.4044 27.9546 88.4317 25.3809 88.4317 22.5771C88.4317 19.7733 87.3401 17.1354 85.355 15.1502C81.2617 11.0569 74.5947 11.0569 70.5014 15.1502C68.5162 17.1354 67.4247 19.7733 67.4247 22.5771C67.4247 24.4659 67.933 26.2744 68.8587 27.8636L65.3754 31.3469C61.8171 28.4843 57.4509 26.5901 52.6727 26.0711V21.1591C57.1727 19.9713 60.5008 15.8779 60.5008 11.0141C60.5008 5.22462 55.7868 0.51062 49.9973 0.51062C44.2078 0.51062 39.4938 5.22462 39.4938 11.0141C39.4938 15.8779 42.822 19.9713 47.322 21.1591V26.0711C35.8981 27.3125 26.8019 36.4087 25.5605 47.8326H20.6485C19.4606 43.3326 15.3673 40.0044 10.5035 40.0044C4.714 40.0044 0 44.7184 0 50.5079C0 56.2974 4.714 61.0115 10.5035 61.0115C15.3673 61.0115 19.4606 57.6833 20.6485 53.1833H25.5605C26.0795 57.9615 27.9737 62.3277 30.8363 65.886L27.353 69.3693C25.7638 68.4383 23.9553 67.9353 22.0665 67.9353C19.2627 67.9353 16.6248 69.0269 14.6396 71.012C12.6545 72.9971 11.563 75.635 11.563 78.4388C11.563 81.2426 12.6545 83.8805 14.6396 85.8656C16.6248 87.8508 19.2627 88.9423 22.0665 88.9423C24.8702 88.9423 27.5082 87.8508 29.4933 85.8656C31.4784 83.8805 32.57 81.2426 32.57 78.4388C32.57 76.55 32.0616 74.7414 31.136 73.1523L34.6193 69.669C38.8357 73.056 44.1811 75.0946 49.9973 75.0946C55.8136 75.0946 61.159 73.0613 65.3754 69.669L68.8587 73.1523C67.9277 74.7414 67.4247 76.55 67.4247 78.4388C67.4247 81.2426 68.5162 83.8805 70.5014 85.8656C72.5507 87.915 75.2368 88.937 77.9282 88.937C80.6196 88.937 83.3057 87.915 85.355 85.8656C87.4044 83.8163 88.4317 81.2426 88.4317 78.4388C88.4317 75.635 87.3401 72.9971 85.355 71.012C81.9145 67.5715 76.6654 67.031 72.647 69.3747L69.1637 65.8913C72.0263 62.3331 73.9205 57.9669 74.4395 53.1887H79.3515C80.5394 57.6886 84.6327 61.0168 89.4965 61.0168C95.286 61.0168 100 56.3028 100 50.5133C100 44.7238 95.286 40.0098 89.4965 40.0098V39.9991ZM74.2843 18.9279C75.2903 17.9219 76.6066 17.419 77.9282 17.419C79.2498 17.419 80.5661 17.9219 81.572 18.9279C83.5786 20.9344 83.5786 24.2037 81.572 26.2156C79.5655 28.2275 76.2962 28.2221 74.2843 26.2156C72.2778 24.2091 72.2778 20.9397 74.2843 18.9279ZM44.8446 11.0034C44.8446 8.16218 47.1561 5.85066 49.9973 5.85066C52.8386 5.85066 55.1501 8.16218 55.1501 11.0034C55.1501 13.8447 52.8386 16.1562 49.9973 16.1562C47.1561 16.1562 44.8446 13.8447 44.8446 11.0034ZM49.9973 31.2667C54.4866 31.2667 58.6227 32.8184 61.8974 35.4082C59.3772 37.8588 56.156 39.4747 52.6727 40.0258V34.8517H47.322V40.0258C43.8386 39.4747 40.6175 37.8588 38.0973 35.4082C41.3719 32.8184 45.5081 31.2667 49.9973 31.2667ZM10.5035 55.6554C7.66226 55.6554 5.35074 53.3438 5.35074 50.5026C5.35074 47.6614 7.66226 45.3498 10.5035 45.3498C13.3447 45.3498 15.6563 47.6614 15.6563 50.5026C15.6563 53.3438 13.3447 55.6554 10.5035 55.6554ZM30.7668 50.5026C30.7668 46.313 32.1152 42.4337 34.3999 39.2714C37.91 42.6745 42.4421 44.8522 47.3273 45.4354V56.0567C42.5384 56.6292 38.0919 58.7374 34.6086 62.0227C32.1954 58.8069 30.7668 54.8206 30.7668 50.5026ZM25.7157 82.072C24.7418 83.0458 23.4469 83.5809 22.0718 83.5809C20.6967 83.5809 19.4018 83.0458 18.428 82.072C16.4214 80.0654 16.4214 76.7961 18.428 74.7843C19.4339 73.7783 20.7502 73.2753 22.0718 73.2753C23.3934 73.2753 24.7097 73.7783 25.7157 74.7843C27.7222 76.7908 27.7222 80.0601 25.7157 82.072ZM47.3273 61.4609V69.5459C43.9991 69.0804 40.9385 67.7641 38.3809 65.8164C40.8583 63.5156 43.967 61.996 47.3273 61.4663V61.4609ZM50.0027 69.7332C49.4729 69.7332 48.9486 69.7064 48.4296 69.6636H51.5758C51.0568 69.7064 50.5324 69.7332 50.0027 69.7332ZM52.678 69.5405V61.4609C56.033 61.9906 59.1471 63.5102 61.6245 65.8111C59.0668 67.7587 56.0062 69.075 52.678 69.5405ZM81.572 74.7789C83.5786 76.7854 83.5786 80.0547 81.572 82.0666C79.5655 84.0785 76.2962 84.0731 74.2843 82.0666C72.2778 80.0601 72.2778 76.7908 74.2843 74.7789C76.2962 72.7724 79.5655 72.767 81.572 74.7789ZM65.3914 62.0174C61.9134 58.732 57.4616 56.6238 52.6727 56.0513V45.4301C57.5579 44.8469 62.09 42.6691 65.6001 39.266C67.8848 42.4283 69.2332 46.3076 69.2332 50.4972C69.2332 54.6869 67.8046 58.8069 65.3914 62.0174ZM89.4965 55.65C86.6553 55.65 84.3437 53.3385 84.3437 50.4972C84.3437 47.656 86.6553 45.3445 89.4965 45.3445C92.3377 45.3445 94.6493 47.656 94.6493 50.4972C94.6493 53.3385 92.3377 55.65 89.4965 55.65Z" fill="white"/>
<path d="M29.4987 15.145C27.5136 13.1598 24.8757 12.0683 22.0719 12.0683C19.2681 12.0683 16.6302 13.1598 14.645 15.145C12.6599 17.1301 11.5684 19.768 11.5684 22.5718C11.5684 25.3756 12.6599 28.0135 14.645 29.9986C16.6302 31.9838 19.2681 33.0753 22.0719 33.0753C23.9607 33.0753 25.7692 32.567 27.3584 31.6413L29.1669 33.4499L32.9499 29.6669L31.1414 27.8583C32.0724 26.2692 32.5754 24.4606 32.5754 22.5718C32.5754 19.768 31.4838 17.1301 29.4987 15.145ZM18.428 26.2157C16.4215 24.2091 16.4215 20.9398 18.428 18.9279C19.4018 17.9541 20.6967 17.419 22.0719 17.419C23.447 17.419 24.7419 17.9541 25.7157 18.9279C27.7222 20.9345 27.7222 24.2038 25.7157 26.2157C23.7092 28.2222 20.4399 28.2222 18.428 26.2157Z" fill="white"/>
</g>
<defs>
<clipPath id="clip0_66_50718">
<rect width="100" height="100" fill="white" transform="translate(0 0.5)"/>
</clipPath>
</defs>
</svg>
